<?xml version="1.0" standalone="no"?>
<!DOCTYPE svg PUBLIC "-//W3C//DTD SVG 1.1//EN" "http://www.w3.org/Graphics/SVG/1.1/DTD/svg11.dtd" >
<!--
2013-9-30: Created.
-->
<svg>
<metadata>
Created by iconfont
</metadata>
<defs>

<font id="iconfont" horiz-adv-x="1024" >
  <font-face
    font-family="iconfont"
    font-weight="500"
    font-stretch="normal"
    units-per-em="1024"
    ascent="896"
    descent="-128"
  />
    <missing-glyph />
    
    <glyph glyph-name="roulei" unicode="&#58894;" d="M957.61301 196.185586c-2.993171-28.646434-5.191232-55.584969-8.710382-82.350566C932.379303-11.846424 791.605116-63.779214 705.617719 11.150336c-82.681094 72.048943-174.732603 94.696756-280.640702 77.552284-42.812061-6.930853-86.454024-8.754385-129.726573-12.81077-59.042721-5.53404-114.653273 4.058432-164.992775 37.283138-58.546418 38.642089-75.846432 75.541487-60.745503 143.371338 39.018665 175.267792 153.177682 292.51003 302.610062 379.042849 95.970772 55.573713 201.12981 62.944588 307.238476 35.675524 160.452365-41.235147 242.49594-151.548578 262.875083-311.715441C949.198364 304.821819 952.679651 249.650265 957.61301 196.185586zM925.379888 186.716934c-10.800997 79.205946-17.240663 148.213623-30.297027 215.94626-12.682857 65.799612-41.039695 126.556371-97.600899 166.230975C667.958004 659.745341 495.656777 702.421302 336.586898 583.399535c-93.312222-69.819159-177.112814-147.066497-223.521796-256.870322-37.060057-87.686085-21.645996-127.308501 66.062602-161.931043 83.685981-33.034371 170.766268-45.880957 258.060427-16.189727 92.264357 31.381731 176.742377 25.191752 256.169357-34.903951 21.159926-16.010649 46.706765-27.063379 71.54343-37.198204 48.960085-19.978007 98.16474-16.546861 131.117247 26.322505C914.682245 126.909803 917.713278 163.208521 925.379888 186.716934zM871.388207-27.663668c-44.193525-52.998051-117.326149-72.117504-175.35682-44.792159-30.673603 14.443967-59.754942 32.546254-88.614224 50.508347-57.666374 35.891442-119.009488 44.227294-185.865151 34.364669-63.463404-9.362228-128.306224-19.901259-191.752232-16.237823-83.622536 4.828982-143.928017 66.464761-156.567895 146.175197 75.914994-100.510158 179.876764-93.272313 284.662295-83.96432 51.413973 4.567016 103.042841 6.868431 154.383136 12.08627 47.24707 4.802376 87.712691-9.866718 125.071553-37.023218 19.932981-14.490016 40.481993-28.137851 60.304458-42.771129 47.787376-35.278481 98.523921-48.050366 155.064658-22.224164C857.747535-29.245699 863.793228-29.170998 871.388207-27.663668zM899.642714 227.104783c0-16.97358-1.349741-33.529651 0.229221-49.801243 7.504928-77.334319-65.153906-104.470353-117.680213-85.499279-27.346835 9.876951-55.283094 21.877263-78.396511 39.050388-83.940784 62.36335-173.48724 69.485561-270.349311 37.365003-88.049359-29.197996-174.404122-14.398942-257.860882 19.329231-60.890812 24.608467-72.624041 54.039777-49.67026 116.656907 38.714743 105.613386 116.093065 179.738617 201.641463 247.988024 136.075165 108.559485 276.810467 104.809067 423.323355 24.051789 77.909417-42.943045 113.382327-113.258507 128.764666-195.854667C889.077078 329.732162 893.176442 278.081805 899.642714 227.104783zM541.721929 538.972697c-59.594283-0.053212-102.753245-18.755156-137.623427-56.788377-39.303144-42.869367-26.583448-92.38613 29.449729-107.838054 60.375066-16.649192 115.853611-0.691755 166.403914 33.283034 25.901926 17.408485 41.642422 41.683355 33.054837 74.824149-8.764618 33.82334-35.162848 48.000224-66.35629 54.972009C556.519959 539.689011 545.675984 538.771105 541.721929 538.972697zM478.521514 421.262808c-12.07092 6.199189-26.466792 13.591553-40.862663 20.98494 10.770298 13.57211 18.899442 32.865525 32.942273 39.350217 20.128433 9.29469 44.729737 12.70844 67.10842 11.697413 11.028171-0.49835 25.64303-14.851243 30.185486-26.28976 2.267647-5.709025-12.56927-23.196305-23.019273-27.877931C526.0766 430.706901 504.754992 427.918391 478.521514 421.262808z"  horiz-adv-x="1024" />

    
    <glyph glyph-name="weixinzhifu" unicode="&#58922;" d="M390.21952 264.90752c-61.26464-34.01984-70.35136 19.09888-70.35136 19.09888l-76.78208 178.46656c-29.54368 84.80512 25.56928 38.23744 25.56928 38.23744s47.2896-35.63392 83.17952-57.34784c35.87072-21.71392 76.75776-6.3744 76.75776-6.3744l501.9648 230.7776C837.94688 782.5472 684.96256 857.6 511.76576 857.6 229.11104 857.6 0 657.86752 0 411.47136c0-141.72544 75.8656-267.8656 194.0352-349.62176l-21.31072-122.01856c0 0-10.38848-35.6224 25.61536-19.10016 24.53376 11.26528 87.0784 51.63392 124.30976 76.20224 58.53056-20.31616 122.2976-31.5968 189.14432-31.5968 282.63168 0 511.79008 199.73248 511.79008 446.13376 0 71.36896-19.31008 138.76864-53.51552 198.59456C810.14144 514.2208 438.15808 291.48288 390.21952 264.90752L390.21952 264.90752 390.21952 264.90752zM390.21952 264.90752"  horiz-adv-x="1024" />

    
    <glyph glyph-name="wodeyouhuijuan" unicode="&#59374;" d="M1009.770667 502.464C1018.282667 505.472 1024 513.536 1024 522.602667l0 131.242667c0 52.352-42.56 94.976-94.912 94.976L94.976 748.821333c-52.352 0-94.954667-42.624-94.954667-94.976l0-131.242667c0-9.045333 5.696-17.130667 14.250667-20.138667C64.426667 484.736 98.133333 437.141333 98.133333 384c0-53.12-33.706667-100.757333-83.882667-118.506667C5.696 262.549333 0 254.421333 0 245.376l0-131.242667c0-52.330667 42.602667-94.954667 94.954667-94.954667L929.066667 19.178667c52.330667 0 94.933333 42.624 94.933333 94.954667l0 131.242667c0 9.045333-5.674667 17.130667-14.229333 20.117333-50.218667 17.749333-83.946667 65.365333-83.946667 118.506667S959.552 484.714667 1009.770667 502.464zM883.114667 384c0-66.048 38.869333-125.717333 98.154667-152.981333l0-116.885333c0-28.778667-23.402667-52.202667-52.202667-52.202667L94.954667 61.930667c-28.8 0-52.224 23.424-52.224 52.202667l0 116.885333c59.264 27.264 98.133333 86.933333 98.133333 152.981333 0 66.048-38.869333 125.738667-98.133333 152.981333l0 116.864c0 28.8 23.402667 52.224 52.224 52.224L929.066667 706.069333c28.778667 0 52.202667-23.402667 52.202667-52.224l0-116.864C921.962667 509.717333 883.114667 450.048 883.114667 384zM683.690667 503.466667l-144.682667 0 86.293333 86.208c8.384 8.362667 8.384 21.888 0 30.229333-8.341333 8.341333-21.824 8.341333-30.208 0L512 536.896l-83.008 82.986667c-8.384 8.362667-21.866667 8.362667-30.208 0-8.362667-8.362667-8.362667-21.866667 0-30.208l86.229333-86.208-144.768 0c-11.776 0-21.354667-9.557333-21.354667-21.354667 0-11.797333 9.578667-21.376 21.354667-21.376l150.4 0 0-79.893333L364.8 380.842667c-11.818667 0-21.376-9.557333-21.376-21.376 0-11.818667 9.557333-21.333333 21.376-21.333333l125.845333 0 0-174.869333c0-11.84 9.557333-21.376 21.354667-21.376 11.84 0 21.376 9.578667 21.376 21.376L533.376 338.133333l125.76 0c11.861333 0 21.418667 9.536 21.418667 21.333333s-9.536 21.376-21.376 21.376l-125.781333 0 0 79.893333 150.357333 0c11.776 0 21.312 9.6 21.312 21.376C705.045333 493.888 695.509333 503.466667 683.690667 503.466667z"  horiz-adv-x="1024" />

    
    <glyph glyph-name="sousuo-copy" unicode="&#58909;" d="M705.046 147.159c71.71 60.801 117.226 151.546 117.226 252.927 0 183.054-148.397 331.455-331.451 331.455s-331.451-148.4-331.451-331.455c0-183.060 148.397-331.455 331.451-331.455 63.311 0 122.468 17.753 172.781 48.548l114.524-119.408c4.731-5.091 12.982-5.631 18.421-1.201l19.708 16.048c5.44 4.428 6.014 12.147 1.282 17.242l-112.492 117.296zM210.361 400.089c0 154.892 125.566 280.457 280.46 280.457s280.46-125.566 280.46-280.457c0-154.895-125.566-280.463-280.46-280.463s-280.46 125.57-280.46 280.463z"  horiz-adv-x="1024" />

    
    <glyph glyph-name="duihaocheckmark17" unicode="&#59248;" d="M730.688 566.88 432 268.192l-138.656 138.688c-12.192 12.192-32 12.192-44.192 0-12.192-12.192-12.192-32 0-44.192l156.96-156.96c1.056-1.504 1.696-3.232 3.04-4.576 6.304-6.304 14.592-9.216 22.848-8.992 8.256-0.192 16.576 2.688 22.88 8.992 1.344 1.344 1.984 3.072 3.04 4.576l316.96 316.96c12.192 12.192 12.192 32 0 44.192C762.656 579.072 742.88 579.072 730.688 566.88zM512 896C229.216 896 0 666.784 0 384c0-282.784 229.216-512 512-512 282.752 0 512 229.216 512 512C1024 666.784 794.784 896 512 896zM512-64C264.576-64 64 136.576 64 384 64 631.424 264.576 832 512 832c247.424 0 448-200.576 448-448C960 136.576 759.424-64 512-64z"  horiz-adv-x="1024" />

    
    <glyph glyph-name="yuanquanweixuanfuben" unicode="&#58895;" d="M510.756683-63.99936c-60.499909 0-119.200846 11.853979-174.473707 35.232432-53.376675 22.577205-101.30936 54.893214-142.465712 96.049566-41.156352 41.154305-73.471338 89.086991-96.048543 142.464689-23.378453 55.271838-35.231409 113.972774-35.231409 174.472684 0 60.499909 11.852956 119.200846 35.231409 174.473707 22.576181 53.376675 54.892191 101.30936 96.048543 142.465712 41.156352 41.156352 89.089038 73.472362 142.465712 96.048543 55.271838 23.378453 113.972774 35.231409 174.473707 35.231409 60.498886 0 119.200846-11.852956 174.472684-35.231409 53.376675-22.577205 101.30936-54.893214 142.465712-96.049566 41.157375-41.155329 73.472362-89.088014 96.048543-142.465712 23.378453-55.269791 35.232432-113.971751 35.232432-174.473707 0-60.501956-11.853979-119.203916-35.233456-174.472684-22.577205-53.378721-54.892191-101.310384-96.04752-142.464689-41.156352-41.157375-89.089038-73.473385-142.464689-96.049566C629.956505-52.145381 571.255569-63.99936 510.756683-63.99936zM510.756683 801.740196c-56.368822 0-111.047142-11.037381-162.514327-32.806173-49.717332-21.028942-94.369298-51.135634-132.716674-89.481987-38.347376-38.347376-68.453045-82.999342-89.481987-132.716674-21.768793-51.467185-32.806173-106.145505-32.806173-162.514327 0-56.368822 11.037381-111.047142 32.806173-162.513304 21.029966-49.719378 51.135634-94.372368 89.481987-132.716674 38.347376-38.3484 82.999342-68.454068 132.716674-89.481987 51.468209-21.769816 106.145505-32.80822 162.514327-32.80822s111.046119 11.037381 162.514327 32.80822c49.717332 21.028942 94.369298 51.134611 132.715651 89.481987 38.347376 38.34533 68.453045 82.996273 89.480964 132.715651 21.769816 51.465139 32.80822 106.143459 32.80822 162.514327 0 56.370869-11.037381 111.048165-32.80822 162.514327-21.028942 49.718355-51.134611 94.371344-89.480964 132.717697-38.347376 38.347376-82.999342 68.453045-132.716674 89.481987C621.803825 790.702815 567.125505 801.740196 510.756683 801.740196z"  horiz-adv-x="1024" />

    
    <glyph glyph-name="daizhifu" unicode="&#58898;" d="M975.238095 237.714286 585.142857 237.714286c-26.940952 0-48.761905 21.820952-48.761905 48.761905l0 195.047619c0 26.940952 21.820952 48.761905 48.761905 48.761905l390.095238 0c26.940952 0 48.761905-21.820952 48.761905-48.761905l0-195.047619C1024 259.535238 1002.179048 237.714286 975.238095 237.714286zM975.238095 481.52381 585.142857 481.52381l0-195.047619 390.095238 0L975.238095 481.52381zM682.666667 359.619048l-48.761905 0 0 48.761905 48.761905 0L682.666667 359.619048zM902.095238 749.714286c0 26.940952-21.820952 48.761905-48.761905 48.761905L97.52381 798.47619C70.582857 798.47619 48.761905 776.655238 48.761905 749.714286l0-731.428571c0-26.940952 21.820952-48.761905 48.761905-48.761905l755.809524 0c26.940952 0 48.761905 21.820952 48.761905 48.761905l0 170.666667 48.761905 0 0-170.666667c0-53.857524-43.666286-97.52381-97.52381-97.52381L97.52381-79.238095c-53.857524 0-97.52381 43.666286-97.52381 97.52381L0 749.714286c0 53.857524 43.666286 97.52381 97.52381 97.52381l755.809524 0c53.857524 0 97.52381-43.666286 97.52381-97.52381l0-170.666667-48.761905 0L902.095238 749.714286z"  horiz-adv-x="1024" />

    
    <glyph glyph-name="jia" unicode="&#58906;" d="M512-128C229.2224-128 0 101.2224 0 384 0 666.7776 229.2224 896 512 896 794.7776 896 1024 666.7776 1024 384 1024 101.2224 794.7776-128 512-128ZM716.8 409.6 537.6 409.6 537.6 588.8 486.4 588.8 486.4 409.6 307.2 409.6 307.2 358.4 486.4 358.4 486.4 179.2 537.6 179.2 537.6 358.4 716.8 358.4 716.8 409.6Z"  horiz-adv-x="1024" />

    
    <glyph glyph-name="gouwuche" unicode="&#58907;" d="M1007.4 670.3c-4.6 5.9-11.7 9.7-19.2 9.7L201.2 680 167.8 855.5C165.6 867 155.5 875 143.7 875L34 875C20.5 875 9.6 864 9.6 850.5S20.5 826 34 826l89.5 0L155 650.6c0-0.1 0-0.2 0-0.4l98.8-513.6C256 125.1 267 117 278.7 117l587.2 0c13.5 0 24.5 11 24.5 24.5s-11 24.5-24.5 24.5L298.9 166l-15.1 77.2 612.3-3.2c0 0 0 0 0 0 11.3 0 21.2 9.5 23.8 20.5l92 389C1013.7 656.9 1012 664.5 1007.4 670.3zM876.8 292.3l-602.3 1.2-44.6 233.9L210.5 630l746.8 0L876.8 292.3zM353.1 66.6c-47.2 0-85.6-38.4-85.6-85.6s38.4-85.6 85.6-85.6c47.2 0 85.6 38.4 85.6 85.6S400.3 66.6 353.1 66.6zM353.1-55.8c-20.2 0-36.7 16.5-36.7 36.7 0 20.2 16.5 36.7 36.7 36.7 20.2 0 36.7-16.5 36.7-36.7C389.8-39.3 373.3-55.8 353.1-55.8zM769 66.6c-47.2 0-85.6-38.4-85.6-85.6s38.4-85.6 85.6-85.6c47.2 0 85.6 38.4 85.6 85.6S816.3 66.6 769 66.6zM769-55.8c-20.2 0-36.7 16.5-36.7 36.7 0 20.2 16.5 36.7 36.7 36.7 20.2 0 36.7-16.5 36.7-36.7C805.7-39.3 789.3-55.8 769-55.8z"  horiz-adv-x="1024" />

    
    <glyph glyph-name="gouwudai201" unicode="&#59013;" d="M672.783405 362.697835c5.364171-5.364171 5.364171-12.526291 0-17.891486L494.242056 169.317523l-19.421328 0-96.137571 93.078909c-5.364171 5.365194-5.364171 10.998495 0 16.390295 5.365194 5.350868 14.056134 5.350868 19.421328 0l86.427418-86.440721L653.362077 361.176179C658.727271 366.535233 667.419234 368.064053 672.783405 362.697835zM663.072229 681.086256l0-99.745748 93.924159 0c39.083134 0 70.88442-28.199249 70.88442-67.274196l0-503.735779c0-39.083134-31.800263-74.490551-70.88442-74.490551L267.001565-64.16002c-39.083134 0-70.883397 35.407418-70.883397 74.490551L196.118168 514.066311c0 39.07597 31.800263 67.274196 70.883397 67.274196l93.924159 0 0 99.745748c0 83.302241 67.771523 151.073764 151.071717 151.073764C595.301729 832.16002 663.072229 764.388497 663.072229 681.086256zM388.393309 581.34153l247.211335 0 0 99.745748c0 68.159356-55.444776 123.605156-123.606179 123.605156-68.159356 0-123.605156-55.4458-123.605156-123.605156L388.393309 581.34153zM663.072229 553.873945l0-51.335179c0-7.583722-6.141884-13.733792-13.732769-13.733792-7.592932 0-13.734816 6.15007-13.734816 13.733792l0 51.335179L388.393309 553.873945l0-51.335179c0-7.583722-6.141884-13.733792-13.733792-13.733792-7.590885 0-13.733792 6.15007-13.733792 13.733792l0 51.335179-93.924159 0c-23.941272 0-43.414789-15.873526-43.414789-39.806611l0-503.735779c0-23.941272 19.47454-47.022966 43.414789-47.022966l489.9938 0c23.941272 0 43.414789 23.082718 43.414789 47.022966L800.410154 514.066311c0 23.934109-19.472494 39.806611-43.414789 39.806611L663.072229 553.872922z"  horiz-adv-x="1024" />

    
    <glyph glyph-name="untitled94" unicode="&#58885;" d="M995.104 821.952l-440.064-440.256 427.872-430.848c16.352-16.448 19.744-39.712 7.616-51.968s-35.232-8.8-51.584 7.648l-428.032 430.976-436.48-436.672c-16.544-16.544-39.936-19.968-52.224-7.68s-8.864 35.68 7.68 52.224l436.64 436.8-437.216 440.256c-16.352 16.448-19.744 39.712-7.616 51.968s35.264 8.832 51.584-7.648l437.376-440.384 439.904 440.096c16.544 16.544 39.936 19.968 52.224 7.68s8.864-35.68-7.68-52.224z"  horiz-adv-x="1024" />

    
    <glyph glyph-name="right" unicode="&#58900;" d="M317.236 64.633l338.493 334.033-338.493 334.033 2.688 2.665c-1.737 2.856-2.962 5.997-2.962 9.566 0 10.636 8.709 19.227 19.488 19.227 3.629 0 6.805-1.214 9.685-2.903l2.701 2.665 357.709-353.020-2.689-2.665c1.737-2.856 2.963-5.997 2.963-9.566 0-3.546-1.226-6.71-2.939-9.566l2.689-2.641-357.732-353.021-2.701 2.641c-2.88-1.689-6.056-2.903-9.685-2.903-10.778 0-19.488 8.614-19.488 19.251 0 3.568 1.226 6.71 2.939 9.541l-2.666 2.664zM317.236 64.633z"  horiz-adv-x="1024" />

    
    <glyph glyph-name="left" unicode="&#58901;" d="M706.543 64.633l-2.665-2.665c1.713-2.833 2.939-5.973 2.939-9.541 0-10.637-8.709-19.251-19.488-19.251-3.63 0-6.805 1.214-9.686 2.903l-2.701-2.641-357.732 353.022 2.689 2.641c-1.713 2.856-2.939 6.020-2.939 9.566 0 3.569 1.226 6.71 2.963 9.566l-2.689 2.665 357.709 353.020 2.701-2.665c2.88 1.689 6.056 2.903 9.686 2.903 10.778 0 19.488-8.591 19.488-19.227 0-3.569-1.226-6.71-2.963-9.566l2.689-2.665-338.494-334.033 338.493-334.033zM706.543 64.633z"  horiz-adv-x="1024" />

    
    <glyph glyph-name="zhaoxiangji" unicode="&#58954;" d="M122.88-37.546667l776.533333 0c44.373333 0 81.92 37.546667 81.92 81.92L981.333333 551.253333c0 44.373333-37.546667 81.92-81.92 81.92l-90.453333 0c-46.08 0-83.626667 22.186667-107.52 61.44l-40.96 69.973333c-15.36 25.6-40.96 40.96-71.68 40.96l-158.72 0c-30.72 0-56.32-15.36-71.68-40.96l-40.96-69.973333c-22.186667-39.253333-61.44-61.44-107.52-61.44L122.88 633.173333c-44.373333 0-81.92-37.546667-81.92-81.92l0-505.173333C40.96 0 78.506667-37.546667 122.88-37.546667L122.88-37.546667zM698.026667 785.066667l40.96-69.973333c15.36-25.6 40.96-40.96 71.68-40.96l90.453333 0c68.266667 0 122.88-54.613333 122.88-122.88 0-168.96 0-337.92 0-505.173333 0-68.266667-54.613333-122.88-122.88-122.88-259.413333 0-518.826667 0-776.533333 0-68.266667 0-122.88 54.613333-122.88 122.88C0 213.333333 0 382.293333 0 551.253333c0 68.266667 54.613333 122.88 122.88 122.88l90.453333 0c30.72 0 56.32 15.36 71.68 40.96l40.96 69.973333c22.186667 39.253333 61.44 61.44 107.52 61.44l158.72 0C636.586667 846.506667 675.84 824.32 698.026667 785.066667zM512 520.533333c-110.933333 0-201.386667-90.453333-201.386667-201.386667 0-110.933333 90.453333-201.386667 201.386667-201.386667 110.933333 0 201.386667 90.453333 201.386667 201.386667C713.386667 430.08 622.933333 520.533333 512 520.533333L512 520.533333zM512 479.573333c88.746667 0 158.72-71.68 158.72-158.72 0-88.746667-71.68-158.72-158.72-158.72s-158.72 71.68-158.72 158.72C353.28 407.893333 423.253333 479.573333 512 479.573333z"  horiz-adv-x="1024" />

    
    <glyph glyph-name="big-Pay" unicode="&#59116;" d="M991.67 206.552v472.296c0 101.81-82.623 184.433-184.493 184.433h-590.414c-101.81 0-184.433-82.623-184.433-184.433v-590.414c0-101.81 82.563-184.433 184.433-184.433h590.414c90.717 0 166.206 65.595 181.615 151.876-48.926 21.165-260.941 112.722-371.385 165.427-84.062-101.81-172.082-162.908-304.771-162.908s-221.248 81.724-210.636 181.735c7.015 65.655 52.044 172.981 247.629 154.574 103.069-9.653 150.257-28.9 234.319-56.661 21.765 39.873 39.813 83.763 53.543 130.47h-372.764v36.935h184.433v66.314h-224.965v40.652h224.965v95.694c0 0 2.039 14.99 18.587 14.99h92.216v-110.684h239.835v-40.652h-239.835v-66.314h195.646c-17.988-73.209-45.269-140.483-79.446-199.243 56.841-20.566 315.503-99.652 315.503-99.652v0 0zM297.947 121.71c-140.183 0-162.368 88.499-154.933 125.494 7.375 36.815 47.967 84.842 125.914 84.842 89.578 0 169.803-22.904 266.097-69.792-67.633-88.079-150.736-140.543-237.077-140.543v0z"  horiz-adv-x="1024" />

    
    <glyph glyph-name="fenlei" unicode="&#58969;" d="M265.755756 282.431195c56.302735 0.000983 112.609402-0.330227 168.904275 0.266344 12.016924 0.127766 23.689862-10.958429 23.638756-23.62303-0.450131-110.759737-0.29288-221.52144-0.189684-332.284125 0.00688-7.715127-1.783816-14.367827-8.19376-18.955624-2.74403-1.964655-6.013868-3.660017-9.278791-4.314574-4.385337-0.87864-8.99574-0.837362-13.509826-0.839327-109.756279-0.048158-219.512558-0.041278-329.268837-0.078625-7.836014-0.002948-15.276934 1.02508-19.756622 8.388358-2.009864 3.303254-3.655103 7.072363-4.38632 10.839508-0.751856 3.878203-0.202461 8.010955-0.203443 12.032649-0.012777 108.415714 0.17101 216.832412-0.290914 325.24616-0.055038 12.984018 11.792842 23.715415 23.630893 23.589615 56.296838-0.600502 112.601539-0.26831 168.904275-0.266344zM265.207343-57.682064c48.425443 0 96.85187 0.000983 145.278296-0.000983 6.338198 0 7.86255 1.690448 7.860584 8.714653-0.019656 92.662113-0.03833 185.326192-0.057003 277.988306-0.000983 3.015288 0.170028 6.043352-0.052089 9.042915-0.291897 3.939137-2.423631 6.092493-6.592748 5.896912-3.512594-0.165114-7.030102-0.325313-10.545645-0.326296-90.149046-0.016708-180.299075-0.015725-270.448121-0.004914-3.014305 0-6.031558 0.072729-9.041932 0.217203-7.441903 0.357746-9.700421-1.830991-9.698455-9.202132 0.018674-94.337819 0.022605-188.675639 0.004914-283.014441-0.000983-7.449766 1.727795-9.309259 9.02031-9.308276 48.090302 0.005897 96.181587 0.003931 144.271889-0.001966zM264.21273 368.270581c-56.141553 0-112.286054 0.294846-168.423676-0.231945-12.176141-0.11499-22.506548 8.98198-22.466253 22.335538 0.332193 111.277683 0.178873 222.555365 0.203443 333.83403 0.002948 11.697508 4.542588 18.895672 13.464616 21.426431 2.053108 0.581829 4.290986 0.70075 6.445325 0.701733 114.965218 0.030467 229.930437-0.095333 344.893689 0.212289 11.176614 0.030467 19.559075-10.385445 19.636718-19.261281 0.03833-4.356835 0.03833-8.714653 0.03833-13.071489 0.005897-106.417644 0.019656-212.836271-0.013759-319.253915-0.001966-6.476775 0.125801-12.803179-4.335213-18.606724-3.402518-4.425633-7.526426-6.453188-12.512265-7.476302-2.439356-0.501238-4.99665-0.579863-7.500872-0.580846-56.476694-0.032433-112.954371-0.025553-169.430083-0.025553zM265.807845 709.138645c0-0.04521 0-0.090419 0-0.136612-46.087318 0-92.173652-0.001966-138.26097 0.003931-3.016271 0-6.03549 0.166096-9.046846 0.071746-3.719969-0.116955-5.924431-2.104215-6.302816-5.848754-0.201478-1.995122-0.231945-4.014814-0.231945-6.024679-0.001966-62.845359 0.016708-125.691702 0.015725-188.537061-0.000983-30.333717-0.046192-60.667433-0.048158-91.000167 0-7.839945 2.355816-10.260627 9.551032-10.260627 96.362426-0.003931 192.725834-0.005897 289.08826-0.106144 4.623179-0.004914 6.8758 1.982345 7.445835 6.281194 0.240791 1.818215 0.285017 3.673776 0.286 5.511647 0.00688 92.006573 0.002948 184.012164-0.017691 276.018737-0.000983 2.678181-0.174942 5.356362-0.296811 8.03356-0.199512 4.392217-2.55926 6.042369-6.884645 6.036473-48.432323-0.06978-96.865629-0.043244-145.296969-0.043244zM724.565996 746.35111c54.633909 0 109.267818 0.026536 163.900745-0.043244 4.95832-0.005897 10.120084 0.125801 14.82582-1.144984 6.555401-1.771039 10.946635-6.269401 11.450821-13.63661 0.50222-7.318068 1.601012-14.627291 1.609857-21.940445 0.126784-104.91 0.32433-209.82-0.115973-314.728035-0.059952-14.360947-2.672284-21.002836-14.427779-25.493334-1.828043-0.697801-3.8841-1.130242-5.834012-1.131224-114.294936-0.036364-228.588889-0.014742-342.883825 0.001966-13.509826 0.001966-20.763028 7.091037-20.764011 20.307-0.009828 112.61923-0.097299 225.23846 0.075677 337.855724 0.022605 14.137847 6.947545 20.05245 21.23085 20.173337 2.678181 0.023588 5.357345-0.20934 8.035526-0.210323 54.299751-0.013759 108.598519-0.009828 162.896304-0.009828zM723.477033 709.062968c0-0.022605 0-0.043244 0-0.065849-45.082877 0-90.164771 0.000983-135.247648-0.001966-3.519474 0-7.038948-0.094351-10.557439-0.025553-4.893454 0.096316-7.599154-2.038366-7.666969-7.110693-0.019656-1.506661-0.217203-3.011357-0.217203-4.517035-0.015725-93.013962-0.026536-186.028908-0.015725-279.041887 0.000983-8.516124 1.57939-10.125981 10.149569-10.74614 0.834413-0.059952 1.67374-0.097299 2.511102-0.097299 94.689668-0.012777 189.38032-0.030467 284.069988-0.015725 8.356907 0.000983 10.779556 2.528793 10.775624 10.856215-0.005897 14.581098-0.044227 29.161214-0.043244 43.742312 0.003931 78.433847 0.017691 156.866711 0.02457 235.301541 0.000983 9.96873-1.624599 11.731907-10.49159 11.729941-47.763024-0.013759-95.52703-0.00688-143.291036-0.00688zM511.793608 98.954668c1.201004 20.222478 4.140615 39.832659 10.589872 58.788284 3.920464 11.519618 7.77213 23.219092 13.317193 33.98194 5.385847 10.455225 12.231179 20.35221 19.640649 29.519943 8.481725 10.495521 17.624888 20.673592 27.722367 29.58186 8.801142 7.764268 19.007714 14.119174 29.188733 20.081935 9.894036 5.794699 20.33845 10.792332 30.930288 15.208137 7.829134 3.264924 16.141814 5.835977 24.486928 7.299395 16.752145 2.936662 33.518049 7.057621 50.722291 5.123434 14.601738-1.641307 29.483578-2.645748 43.583096-6.401098 14.85727-3.957811 29.514046-9.716146 43.191934-16.760007 14.159469-7.293498 27.140539-16.800303 39.237071-27.529735 11.852794-10.513212 22.042658-22.333572 31.078693-35.123975 5.83696-8.261574 10.543679-17.370338 15.257278-26.362146 3.702278-7.063518 7.572618-14.266596 9.703369-21.873613 3.593185-12.830698 6.70872-25.921843 8.450275-39.110288 1.611823-12.211522 1.9106-24.72477 1.409362-37.0503-0.513031-12.61153-1.458503-25.307582-5.938191-37.452272-3.164676-8.582956-5.217785-17.570833-8.235038-26.213741-1.852613-5.307221-4.158306-10.56137-7.021257-15.388975-5.851703-9.873397-12.098498-19.519762-18.432765-29.094382-2.086524-3.153865-1.784799-5.41828 0.787238-7.917588 15.251381-14.829751 30.492933-29.670314 45.665688-44.579674 9.253238-9.093039 18.891741-17.870593 27.384278-27.634896 5.872342-6.750982 3.410381-18.687315-3.575494-24.480048-6.095442-5.054637-19.077494-4.741117-24.834846 0.775444-20.195942 19.349735-40.307361 38.787923-60.515096 58.124881-3.610876 3.455591-7.3849 6.776535-11.344676 9.821307-3.509646 2.699803-7.086123 1.382826-10.111239-1.127293-21.306527-17.681891-45.715812-28.876196-72.299093-36.261096-21.681964-6.022713-43.677446-6.22026-65.727967-5.538183-15.912818 0.491409-31.674281 3.803508-46.653421 9.003602-15.192412 5.273805-30.213813 11.558931-43.354099 21.206279-11.552051 8.481725-23.291821 16.827822-33.972111 26.329713-7.159834 6.370631-12.968293 14.394363-18.738421 22.154699-6.056129 8.145601-11.679818 16.664674-16.848461 25.400949-3.189247 5.389778-5.40452 11.402663-7.641415 17.294661-2.777446 7.313154-5.330809 14.727538-7.596206 22.214651-1.829026 6.046301-3.494903 12.197763-4.515069 18.420971-1.936153 11.813481-3.357309 23.708536-4.992719 35.569192zM871.306726 99.31831c0.865863 89.8542-72.547746 159.502631-156.367439 160.887422-89.319547 1.475211-167.921456-72.892715-163.412284-168.949484 3.69245-78.624514 70.289228-156.651474 168.956364-152.340831 78.383723 3.423158 150.437111 67.725054 150.822376 160.402893z"  horiz-adv-x="1024" />

    
    <glyph glyph-name="shouhuodizhi" unicode="&#58978;" d="M512.005117 895.653099c-282.287201 0-434.613492-213.591633-434.613492-396.730697 0-190.322673 196.84625-402.487817 429.855118-504.555447l4.758374-2.100848 4.758374 2.100848c232.997612 102.066607 429.844885 314.251194 429.844885 504.555447C946.607352 682.06249 794.292318 895.653099 512.005117 895.653099zM512.00307 369.313509c-108.035552 0-195.61419 87.579661-195.61419 195.61419S403.967518 760.541889 512.00307 760.541889c108.033505 0 195.61419-87.579661 195.61419-195.61419S620.037599 369.313509 512.00307 369.313509zM259.848143-88.530057a246.409 38.232 0 1 0 504.303714 0 246.409 38.232 0 1 0-504.303714 0Z"  horiz-adv-x="1024" />

    
    <glyph glyph-name="eye" unicode="&#58886;" d="M783.058824-128C340.690824-128 0 376.048941 0 376.048941 0 376.048941 294.912 896 783.058824 896 1271.205647 896 1566.117647 376.048941 1566.117647 376.048941 1566.117647 376.048941 1225.426824-128 783.058824-128ZM1301.684706 582.957176C1144.048941 731.557647 971.173647 821.729882 777.999059 821.729882 584.764235 821.729882 411.888941 731.557647 254.253176 582.957176 198.294588 529.889882 147.456 471.582118 106.797176 413.214118 101.677176 402.552471 91.497412 391.951059 86.437647 381.349647 96.617412 370.748235 101.677176 360.146824 111.856941 349.545412 157.635765 291.177412 213.534118 238.110118 269.492706 185.042824 432.188235 36.502588 605.063529-48.429176 777.999059-48.429176 950.874353-48.429176 1123.749647 41.803294 1286.445176 185.042824 1347.463529 238.110118 1398.302118 296.478118 1444.080941 349.545412 1454.260706 360.146824 1464.440471 370.748235 1469.500235 381.349647 1464.440471 391.951059 1454.260706 402.552471 1449.140706 413.214118 1403.422118 471.582118 1357.643294 529.889882 1301.684706 582.957176ZM777.999059 131.975529C630.482824 131.975529 508.506353 254.012235 508.506353 413.214118 508.506353 567.055059 625.423059 694.392471 777.999059 694.392471 925.455059 694.392471 1047.491765 567.055059 1047.491765 413.214118 1047.491765 259.312941 930.514824 131.975529 777.999059 131.975529ZM777.999059 609.520941C671.201882 609.520941 584.764235 519.288471 584.764235 407.913412 584.764235 296.478118 671.201882 206.245647 777.999059 206.245647 884.736 206.245647 971.173647 301.778824 971.173647 407.913412 971.173647 519.288471 884.736 609.520941 777.999059 609.520941Z"  horiz-adv-x="1567" />

    
    <glyph glyph-name="iconfontzhizuobiaozhunbduan32" unicode="&#59110;" d="M693.063287 548.547637c11.739369 0 23.353894-0.862647 34.874275-2.143826-31.333636 145.899928-187.328479 254.30694-365.384781 254.30694-199.066825 0-362.134761-135.684262-362.134761-307.978327 0-99.453083 54.251601-181.122127 144.907321-244.463758l-36.219923-108.936061 126.59628 63.48387c45.299719-8.968256 81.639369-18.185174 126.849036-18.185174 11.361769 0 22.630417 0.560772 33.80492 1.438769-7.074116 24.211425-11.174504 49.568952-11.174504 75.879178C385.183198 420.154431 521.046538 548.547637 693.063287 548.547637L693.063287 548.547637zM498.35063 646.729773c27.267017 0 45.331441-17.938558 45.331441-45.189202 0-27.139104-18.063401-45.328371-45.331441-45.328371-27.142174 0-54.377468 18.188244-54.377468 45.328371C443.973162 628.793262 471.208457 646.729773 498.35063 646.729773L498.35063 646.729773zM244.908384 556.214247c-27.139104 0-54.531987 18.186198-54.531987 45.328371 0 27.250644 27.390837 45.188178 54.531987 45.188178 27.139104 0 45.203528-17.937534 45.203528-45.188178C290.111912 574.400444 272.048511 556.214247 244.908384 556.214247L244.908384 556.214247zM1023.580956 266.298298c0 144.778384-144.879692 262.793218-307.599703 262.793218-172.303274 0-308.004933-118.013811-308.004933-262.793218 0-145.026024 135.705752-262.790148 308.004933-262.790148 36.063357 0 72.435753 9.092076 108.656699 18.170848l99.329263-54.389748-27.232225 90.499154C969.421452 112.318344 1023.580956 184.630277 1023.580956 266.298298L1023.580956 266.298298zM616.116801 311.610296c-18.030655 0-36.219923 17.938558-36.219923 36.236296 0 18.044982 18.188244 36.213783 36.219923 36.213783 27.39186 0 45.330418-18.168802 45.330418-36.213783C661.447219 329.548854 643.508661 311.610296 616.116801 311.610296L616.116801 311.610296zM815.309492 311.610296c-17.907858 0-35.971259 17.938558-35.971259 36.236296 0 18.044982 18.063401 36.213783 35.971259 36.213783 27.140127 0 45.326325-18.168802 45.326325-36.213783C860.63684 329.548854 842.450642 311.610296 815.309492 311.610296L815.309492 311.610296z"  horiz-adv-x="1024" />

    
    <glyph glyph-name="duihao2" unicode="&#59038;" d="M0 384C0 666.765241 229.234759 896 512 896s512-229.234759 512-512-229.234759-512-512-512S0 101.234759 0 384z m419.310345-194.630621a35.310345 35.310345 0 0 1 49.399172-1.271172l335.518897 311.931586a35.310345 35.310345 0 0 1-48.075035 51.729655l-309.124413-289.544827-145.125518 149.645241a35.310345 35.310345 0 1 1-50.688-49.169655l168.112552-173.320828z"  horiz-adv-x="1024" />

    
    <glyph glyph-name="fenxiang" unicode="&#58883;" d="M241.716115 113.101399s-0.797747-5.987618-0.31368-9.363442v-0.189051c1.394401-14.577395 13.672479-25.971028 28.608108-25.971027 14.941047 0 26.326251 11.059482 28.608108 25.971027l2.266204 13.160717c111.685774 465.148473 460.749125 546.430757 619.803004 558.8437L760.021026 525.62326c-11.423736-11.172672-11.63386-29.666553-0.461189-41.090891 11.173876-11.427951 29.666553-11.63988 41.09631-0.466005l214.03219 199.734759c5.800975 5.669723 8.70357 13.227547 8.703569 20.793198 0.181826 9.835467-4.610074 19.557142-13.48403 25.175689L748.853773 887.941251c-13.500888 8.549439-31.544419 4.490864-40.093256-9.011229-8.549439-13.506307-4.497486-31.549235 9.010025-40.098072l179.135428-108.539942C340.083429 677.089814 251.898377 188.655559 241.716115 113.101399z m0 0M1023.397927 325.352656c0 16.05127-13.011403 29.057255-29.062673 29.057255-16.044647 0-29.057857-13.005984-29.057857-29.057255 0-0.143895 0.012041-0.27876 0.012041-0.421451h-0.012041v-298.870318c0-24.975801-9.834865-48.568639-27.697171-66.430344-17.867123-17.861102-41.454543-27.703794-66.42914-27.703794H156.763593c-24.974597 0-48.563221 9.842692-66.429139 27.703794-17.861102 17.861704-27.696569 41.454543-27.696569 66.430344V660.987969c0 24.976403 9.835467 48.568639 27.696569 66.429742C108.194954 745.279415 131.788997 755.114882 156.763593 755.114882h186.387399c16.045852 0 29.057857 13.011403 29.057857 29.063275 0 16.04525-13.011403 29.05605-29.057857 29.056051H156.763593c-83.732722 0-152.246841-68.506894-152.24684-152.246239v-634.933705c0-83.733324 68.514119-152.248045 152.24684-152.248045h714.387493c83.732722 0 152.246841 68.514721 152.246841 152.248045V324.931205h-0.012042c0.000602 0.142691 0.012041 0.277556 0.012042 0.421451z m0 0M343.150992 813.234208V755.114882v58.119326z m0 0"  horiz-adv-x="1024" />

    
    <glyph glyph-name="weixinpengyouquan" unicode="&#58887;" d="M539.008 604.608l-465.024-2.688s25.6 67.584 95.936 137.984C240.32 810.24 305.216 838.528 305.216 838.528l233.792-233.92M385.024 563.52L58.048 232.768S28.352 298.688 28.352 398.144c0 99.52 25.984 165.376 25.984 165.376h330.688M305.216 425.6l2.688-465.088s-67.584 25.6-137.984 95.936c-70.336 70.4-98.56 135.296-98.56 135.296l233.856 233.792M346.304 271.552l330.752-326.976s-65.92-29.632-165.44-29.632c-99.456 0-165.312 25.92-165.312 25.92V271.488M484.224 191.68l465.088 2.752s-25.6-67.584-96-137.984c-70.336-70.4-135.232-98.624-135.232-98.624l-233.856 233.92M638.272 232.768l326.912 330.752s29.696-65.856 29.696-165.312c0-99.584-25.92-165.44-25.92-165.44H638.272M718.08 370.752L715.392 835.84s67.584-25.6 137.92-95.936c70.4-70.4 98.624-135.296 98.624-135.296L718.08 370.752M677.056 524.8L346.24 851.712S412.16 881.408 511.68 881.408c99.456 0 165.312-25.856 165.312-25.856V524.8"  horiz-adv-x="1024" />

    
    <glyph glyph-name="shucai" unicode="&#58913;" d="M760 605.6c-53.6-25.6-70.4-56-76-71.2 13.6-3.2 38.4-6.4 73.6 5.6l29.6 9.6-7.2-29.6c-5.6-24-1.6-45.6 1.6-59.2 12.8 4 32.8 13.6 52.8 37.6l22.4 25.6 8-32.8c7.2-28.8 24-48.8 35.2-60 12.8 14.4 32.8 45.6 23.2 95.2-3.2 18.4-8.8 33.6-15.2 46.4-6.4 12.8-15.2 23.2-24.8 30.4l-8.8 7.2 3.2 10.4c7.2 20.8 12.8 43.2 16.8 64.8 2.4 15.2 4.8 28.8 5.6 40.8l-30.4 2.4c1.6-9.6 2.4-20.8 3.2-32 0.8-20 0.8-42.4-2.4-63.2l-2.4-18.4-19.2 4c-12.8 3.2-27.2 3.2-41.6 0.8-14.4-0.8-31.2-6.4-47.2-14.4zM504 708c41.6-25.6 74.4-61.6 95.2-103.2-9.6-15.2-17.6-32-21.6-48.8l-96-36C387.2 484.8 312 445.6 232.8 384c-26.4-20.8-50.4-43.2-70.4-67.2-60.8 45.6-100 113.6-100 189.6 0 102.4 71.2 190.4 172 228 9.6-9.6 20.8-18.4 31.2-25.6 0.8 0 0.8-0.8 1.6-0.8-11.2-12.8-21.6-26.4-29.6-38.4l-24-34.4 42.4-8c24.8-4.8 56-4 80.8 1.6 9.6 2.4 19.2 6.4 28 12 18.4-20 50.4-40.8 72.8-55.2l36-22.4 6.4 40.8c4 24 1.6 54.4-4.8 77.6-0.8 2.4-1.6 4.8-2.4 6.4 10.4 6.4 21.6 13.6 31.2 20z m-73.6-8c28.8 8.8 76.8 42.4 76.8 42.4s-28.8 16.8-65.6 20.8c-13.6 1.6-28.8-4-42.4-11.2 0 15.2 4 29.6 16 48l-33.6 19.2C364.8 792 360 773.6 360 752.8c-9.6 12.8-22.4 25.6-36.8 28.8-30.4 4.8-88-3.2-88-3.2s17.6-28 48-48c11.2-7.2 26.4-9.6 42.4-8.8-1.6-0.8-4-1.6-5.6-3.2-24-18.4-57.6-64.8-57.6-64.8s33.6-6.4 68.8 1.6c16.8 4 32 18.4 43.2 32.8 0.8-9.6 3.2-19.2 9.6-26.4 20-22.4 69.6-52.8 69.6-52.8s5.6 32.8-4 66.4c-4.8 9.6-11.2 17.6-19.2 24.8zM146.4 384.8c2.4 88.8 12.8 160 42.4 212l-41.6 25.6c-52-44-48.8-120-0.8-237.6z m132.8-56C421.6 439.2 520 451.2 653.6 509.6l-7.2 4 0.8 10.4s1.6 64.8 97.6 111.2c20 9.6 39.2 16 58.4 19.2 12 2.4 24 2.4 36 1.6 0.8 13.6 0.8 27.2 0.8 40-0.8 19.2-4 36-7.2 47.2l-8 24 25.6-1.6 69.6-5.6 16-0.8V744c0-16-2.4-38.4-6.4-62.4-4-19.2-8.8-39.2-14.4-58.4 9.6-9.6 17.6-20 24.8-33.6 8-16 14.4-34.4 19.2-55.2 17.6-92.8-46.4-138.4-47.2-138.4l-10.4-7.2-10.4 7.2s-1.6 0.8-3.2 2.4c-61.6-194.4-241.6-367.2-451.2-433.6-109.6-34.4-175.2-19.2-236 72-47.2 68-69.6 177.6 78.4 292z m-12-295.2c-16 34.4-15.2 68-3.2 100.8l-49.6 24c-6.4-39.2 8-80.8 52.8-124.8zM296 194.4C363.2 285.6 496 368 572 439.2c-86.4-40.8-264.8-117.6-332.8-217.6l56.8-27.2"  horiz-adv-x="1024" />

    
    <glyph glyph-name="shuiguo" unicode="&#58914;" d="M656.8 649.6c-117.6 0-220-67.2-270.4-165.6 16.8-4 32.8-8.8 48.8-16 34.4-14.4 64.8-35.2 91.2-62.4 26.4-26.4 47.2-57.6 61.6-92 15.2-36 22.4-73.6 22.4-112.8s-8-76.8-22.4-112.8c-5.6-13.6-12-26.4-20-38.4 28.8-8.8 58.4-12.8 88-12.8 168 0 304.8 136.8 304.8 306.4 0 169.6-136 306.4-304 306.4zM429.6 816c0.8-48.8 24.8-97.6 68.8-126.4 44-28.8 97.6-32 142.4-12.8-0.8 48.8-24.8 97.6-68.8 126.4-43.2 28.8-96.8 32-142.4 12.8zM673.6 676c28.8-12 63.2-10.4 92 8.8 28 18.4 44 49.6 44 81.6-28.8 12-63.2 10.4-92-8.8-28-19.2-44-49.6-44-81.6zM363.2 177.6l97.6-116.8c9.6 8.8 17.6 19.2 24.8 29.6 15.2 22.4 25.6 48 30.4 74.4-51.2 4-87.2 7.2-112.8 9.6-18.4 1.6-31.2 2.4-40 3.2zM128 200c0-50.4 20-88.8 35.2-111.2l115.2 97.6L128 200z m193.6 197.6c-40-0.8-80-13.6-112-36.8l98.4-117.6 13.6 154.4zM366.4 213.6l15.2-1.6L518.4 200c0 42.4-12 80.8-35.2 113.6-35.2-29.6-79.2-67.2-107.2-91.2-3.2-3.2-6.4-6.4-9.6-8.8zM323.2-60c92 0 172 48 218.4 120 26.4 40.8 41.6 89.6 41.6 141.6 0 127.2-89.6 232.8-208.8 256.8-16.8 3.2-33.6 4.8-51.2 4.8-144 0-260-117.6-260-261.6 0-144.8 116-261.6 260-261.6z m0 488.8c13.6 0 27.2-1.6 40-3.2 105.6-19.2 185.6-112 185.6-223.2 0-47.2-14.4-90.4-38.4-127.2-40.8-60.8-109.6-100-187.2-100-124.8 0-225.6 101.6-225.6 227.2 0 124.8 100.8 226.4 225.6 226.4zM287.2 8l12.8 151.2-115.2-96.8c28.8-28.8 64-47.2 102.4-54.4z m-104 330.4c-27.2-28.8-45.6-64.8-52.8-104l150.4-13.6-97.6 117.6z m249.6-300L335.2 156l-13.6-151.2c52 0 89.6 19.2 111.2 33.6z m28.8 302.4c-28.8 28.8-65.6 48-104.8 54.4v-3.2l-4.8-43.2-9.6-108c5.6 4.8 12.8 11.2 20.8 17.6 29.6 24.8 69.6 58.4 98.4 82.4z"  horiz-adv-x="1024" />

    
    <glyph glyph-name="haixian" unicode="&#58976;" d="M173.12 711.136l744.624 0L917.744 746.032 173.12 746.032c-72.608 0-131.664-59.056-131.664-131.664 0-72.576 59.056-131.632 131.664-131.632l75.12 0c62.208-43.536 168.688-84.08 350.816-87.232L599.056 592.832 162.512 592.832c0 0 6.192-34.8 44.672-75.2L173.12 517.632c-53.344 0-96.752 43.408-96.752 96.736C76.352 667.728 119.776 711.136 173.12 711.136M362.608 565.52c16.384 0 29.664-13.296 29.664-29.696 0-16.416-13.296-29.712-29.664-29.712-16.416 0-29.696 13.296-29.696 29.712C332.912 552.224 346.192 565.52 362.608 565.52M629.6 588.896c0 0 140.992 16.432 221.312-66.256L606.432 271.12l-27.456 27.104 97.296 96L629.6 394.224 629.6 588.896zM881.92 497.264l-151.888-141.456 33.152-41.024-55.008 4.352-71.616-69.84 27.088-27.04 50.096 50.064 263.328 0C977.088 272.32 1005.024 392.48 881.92 497.264M964.88 244.768L766.032 244.768l0-43.104L670.08 201.664l0-40.224 64.928 0 93.664-97.104C828.672 64.336 913.136 74.112 964.88 244.768M702.96 146.304c0 0-78.576-49.776-72.48-137.952 0 0 99.568 3.488 160.656 41.008L702.96 146.304zM376.416 170.736c0 0 51.504-130.976 220-162.384C596.416 8.336 614.784 184.704 376.416 170.736"  horiz-adv-x="1024" />

    
    <glyph glyph-name="xiangshang" unicode="&#58899;" d="M64.633 193.819L511.145 640.33l446.512-446.511z"  horiz-adv-x="1024" />

    
    <glyph glyph-name="xiangxia" unicode="&#58902;" d="M128.005 593.026l386.971-420.571 381.019 422.746z"  horiz-adv-x="1024" />

    
    <glyph glyph-name="gouwuche1" unicode="&#58929;" d="M841.998968 18.474877c-40.116113 0-72.750535-32.622546-72.750535-72.726783 0-40.092361 32.634422-72.714908 72.750535-72.714908 40.133926 0 72.780224 32.622546 72.780224 72.714908 0 40.104237-32.646298 72.726784-72.780224 72.726783zM330.506654 19.472436c-40.638644 0-73.712467-33.073823-73.712467-73.724342 0-40.644581 33.067885-73.700591 73.712467-73.700591 40.674271 0 73.759969 33.056009 73.759969 73.700591 0 40.650519-33.085699 73.724342-73.759969 73.724342zM1010.265754 751.30054c-19.939299 22.50445-47.372165 34.902681-77.192047 34.902681H198.347932a42.455626 42.455626 0 0 1-5.730025-0.427526l-1.716038 9.898396C183.930833 851.929279 146.148295 896 89.679345 896h-46.64181c-23.727648 0-43.037535-19.298012-43.037535-43.025659 0-23.739523 19.309887-43.049411 43.037535-43.049411h46.64181c12.908885 0 26.203731-12.683247 27.896018-26.607504l35.407398-204.737059 62.062405-436.752599c6.840403-56.409572 56.017674-94.655263 111.952219-94.655263l5.183743 0.023751h589.40284c23.727648 0 43.025659 13.336411 43.025659 37.040307 0 23.751399-19.298012 37.135312-43.025659 37.135312H321.059535c-12.303225 0-30.894632 18.068877-32.497852 31.518107l-3.271755 23.05667 1.454773 5.848782 620.255908 46.837759s23.38919 2.505773 42.66345 24.469879c20.723096 18.50234 28.038526 43.32849 31.345909 69.888491l57.662459 329.63379 0.047502 0.261265c4.524641 37.046244-5.842844 72.922733-28.454175 98.413922z m-38.96417-80.267853l-51.659293-335.48851-0.053441-0.267203c-1.692287-13.948009-7.523256-35.87055-19.832418-40.899909l-9.417429-1.995117L280.533711 243.893467c-1.526027-0.118757-3.14706-0.314706-4.815596-0.587847L226.226137 591.910839 205.408036 711.980099h727.665671c5.082799 0 21.138745-7.855775 24.606449-11.810383 5.914098-6.715708 14.850562-18.140131 13.621428-29.137029z"  horiz-adv-x="1039" />

    
    <glyph glyph-name="shezhi" unicode="&#58931;" d="M704.808016-128c-19.734215 0-38.906057 8.154423-51.284675 21.817555-16.877611 18.500827-70.335095 66.602977-114.091628 66.602977-43.449783 0-97.731657-48.376946-113.324755-65.331244-12.353056-13.43307-31.390695-21.440509-50.926801-21.44051-9.304734 0-18.085437 1.776591-26.099266 5.30421l-1.405936 0.613499-133.007844 74.386744-1.322857 0.93303c-24.214036 16.941517-33.429301 50.102412-21.434119 77.102755 0.089469 0.21089 12.263588 28.304028 12.263588 53.923999 0 77.735426-63.241514 140.983331-140.989721 140.983331h-4.709883l-0.856342-0.012781c-22.271289 0-40.40146 19.78534-46.197747 50.402771-0.460124 2.447605-11.34973 60.525503-11.34973 106.269516 0 45.750404 10.883215 103.821912 11.34973 106.269517 5.860193 31.007258 24.386582 50.920411 47.047699 50.383599h4.709882c77.741817 0 140.989721 63.247905 140.989721 140.989721 0 25.607189-12.167729 53.693937-12.295541 53.975124-11.982401 26.987562-2.70962 60.135676 21.606666 77.032459l1.380372 0.958592 140.369832 77.096365 1.463451 0.619889c7.898799 3.367853 16.55808 5.080538 25.728611 5.080538 19.484981 0 38.567354-7.847674 51.035441-20.986775 16.615596-17.395251 69.127269-62.634406 111.631242-62.634406 42.107754 0 94.293506 44.344469 110.857977 61.43297 12.38501 12.870696 31.326789 20.577776 50.639224 20.577777 9.355859 0 18.174906-1.7702 26.201516-5.259476l1.425107-0.619889 135.576872-75.319774 1.335638-0.93303c24.252379-16.928736 33.499597-50.07685 21.491634-77.109146-0.10225-0.2045-12.269978-28.297638-12.269978-53.917608 0-77.741817 63.241514-140.989721 140.983331-140.989722h4.716272c22.629163 0.504858 41.174725-19.376341 47.041309-50.383599 0.460124-2.447605 11.343339-60.525503 11.343339-106.275907 0-45.744013-10.883215-103.828302-11.343339-106.269517-5.866583-31.007258-24.412145-50.850114-47.041309-50.389989h-4.716272c-77.729035 0-140.983331-63.241514-140.983331-140.983331 0-25.619971 12.167729-53.693937 12.295541-53.981515 11.96962-26.962 2.722401-60.110113-21.555541-77.038849l-1.3612-0.933029-137.858321-76.201679-1.437888-0.62628c-7.886017-3.399807-16.506955-5.118882-25.619971-5.118882z m0.325922 52.198533c0.639061-0.408999 2.422043-1.124748 4.307273-1.124748l0.210891 0.006391 132.471033 73.217262c-3.195307 7.432284-17.817031 43.488127-17.817032 81.084108 0 112.468412 88.586688 204.633844 199.636385 210.404568 1.597653 8.831828 10.276107 58.467726 10.276107 95.725004 0 37.250888-8.678454 86.880394-10.276107 95.725004-111.049696 5.770724-199.636384 97.936156-199.636385 210.404568 0 37.659887 14.672849 73.760464 17.848985 81.128842l-130.342959 72.405654a7.400331 7.400331 0 0 1-0.536812 0.019172c-2.223934 0-4.300883-0.805217-4.978288-1.271732-2.198371-2.249496-21.082635-21.408556-48.217181-40.497319-40.165008-28.259294-78.150816-42.58705-112.896583-42.587051-35.08447 0-73.370637 14.608943-113.80405 43.424221-27.300702 19.459419-46.280825 38.982744-48.472806 41.270584-0.690186 0.479296-2.792698 1.310076-5.035803 1.310076l-0.466515-0.012782-134.982545-74.13112c3.233651-7.521752 17.810641-43.513689 17.810641-81.045764 0-112.468412-88.593079-204.633844-199.649165-210.404568-1.597653-8.831828-10.276107-58.474116-10.276107-95.725004 0-37.238107 8.672063-86.880394 10.276107-95.725004 111.056086-5.764334 199.642775-97.942547 199.642774-210.404568 0-37.730184-14.723974-73.901058-17.855374-81.179967l127.76115-71.434281a9.074672 9.074672 0 0 1 4.543727 1.073623c2.39009 2.569027 21.472462 22.769757 48.958492 42.912972 40.970225 30.016713 79.901844 45.245546 115.714844 45.245546 36.164483 0 75.38368-15.51641 116.596748-46.11467 27.645795-20.520261 46.804855-41.098037 49.188555-43.699017zM539.891837 196.489806c-103.527943 0-187.756233 84.22829-187.756233 187.756233s84.22829 187.756233 187.756233 187.756233c103.534334 0 187.756233-84.22829 187.756233-187.756233s-84.221899-187.756233-187.756233-187.756233z m0 321.236983c-73.600699 0-133.48075-59.880051-133.48075-133.48075 0-73.60709 59.880051-133.48075 133.48075-133.480751 73.600699 0 133.48075 59.873661 133.48075 133.480751 0 73.600699-59.873661 133.48075-133.48075 133.48075z"  horiz-adv-x="1084" />

    
    <glyph glyph-name="lianjie" unicode="&#58955;" d="M388.544 281.152a192 192 0 0 1 271.36-0.128l271.808 271.808a192 192 0 0 1-271.552 271.552L524.352 688.448a32 32 0 0 1 45.248-45.248l135.808 135.808a127.68 127.68 0 0 0 180.992 0 127.68 127.68 0 0 0 0-181.056L614.848 326.4c-49.92-49.92-130.624-50.304-180.992 0a32 32 0 1 1-45.248-45.248zM614.848 507.456a192 192 0 0 1-271.424 0.128l-271.808-271.808a192 192 0 0 1 271.552-271.552l135.872 135.936a32 32 0 1 1-45.248 45.248L298.048 9.6c-49.984-49.92-130.688-50.304-181.056 0a127.68 127.68 0 0 0 0 181.056l271.552 271.552a127.68 127.68 0 0 0 180.992 0 32 32 0 1 1 45.312 45.248z"  horiz-adv-x="1024" />

    
    <glyph glyph-name="dianpu" unicode="&#58903;" d="M430.6432 294.621867c36.352 0 70.178133 14.455467 94.805333 38.877866a134.434133 134.434133 0 0 1 94.788267-38.877866c36.352 0 70.178133 14.455467 94.805333 38.877866a134.434133 134.434133 0 0 1 94.788267-38.877866c73.7792 0 133.751467 59.016533 133.751467 132.0448a25.6 25.6 0 1 1-51.2 0c0-44.561067-36.864-80.8448-82.551467-80.8448a82.773333 82.773333 0 0 0-72.448 42.069333 25.6 25.6 0 0 1-44.680533 0 82.773333 82.773333 0 0 0-72.465067-42.069333 82.773333 82.773333 0 0 0-72.448 42.069333 25.6 25.6 0 0 1-44.680533 0 82.773333 82.773333 0 0 0-72.465067-42.069333 82.773333 82.773333 0 0 0-72.448 42.069333 25.6 25.6 0 0 1-44.680533 0 82.773333 82.773333 0 0 0-72.448-42.069333c-45.687467 0-82.551467 36.283733-82.551467 80.8448a25.6 25.6 0 0 1-51.2 0c0-73.028267 59.972267-132.0448 133.751467-132.0448 36.352 0 70.178133 14.455467 94.788266 38.877866a134.434133 134.434133 0 0 1 94.788267-38.877866zM817.5104 759.466667l68.3008-295.748267H165.102933L233.386667 759.466667h584.123733zM213.026133 810.666667a25.6 25.6 0 0 1-24.9344-19.848534L107.9808 443.904a25.6 25.6 0 0 1 24.9344-31.368533h785.066667a25.6 25.6 0 0 1 24.951466 31.368533L862.8224 790.818133A25.6 25.6 0 0 1 837.888 810.666667H213.026133zM827.665067 54.6304c0 6.212267 2.577067 11.008 5.290666 13.141333 0.068267 0.0512-1.160533-0.3584-3.259733-0.3584h-2.030933v-12.782933zM224.768 67.413333c-2.013867 0-3.2768 0.4096-3.242667 0.392534 2.679467-2.0992 5.2736-6.877867 5.2736-13.175467v12.782933h-2.030933z m2.030933 0V349.866667h-51.2v-295.236267c0-21.213867 22.016-38.417067 49.169067-38.417067h604.945067c27.357867 0 49.169067 17.2032 49.169066 38.417067V349.866667h-51.2v-282.453334H226.781867z m0-12.782933c0 6.314667-2.594133 11.093333-5.290666 13.175467 0 0.017067 1.245867-0.392533 3.259733-0.392534h2.030933v-12.782933z m602.914134 12.782933c2.0992 0 3.328 0.4096 3.259733 0.341334-2.7136-2.116267-5.290667-6.912-5.290667-13.124267v12.782933h2.030934z"  horiz-adv-x="1041" />

    
    <glyph glyph-name="dianpu1" unicode="&#58891;" d="M1024 529.312c0 2.92-0.416 5.84-1.264 8.648l-70.184 234.88c-6.84 25.32-27.696 102.368-109.208 102.368H177.672c-53.96 0-93.848-37.648-109.064-101.936L1.168 537.64c-0.768-2.72-1.168-5.52-1.168-8.328 0-70.712 38.768-132.424 96.096-165.408v-378.216c0-51.232 41.672-92.888 92.888-92.888h646.024c51.224 0 92.888 41.656 92.888 92.888V363.904C985.232 396.856 1024 458.6 1024 529.312z m-156.568-543.624a32.48 32.48 0 0 0-32.424-32.424H188.984a32.456 32.456 0 0 0-32.416 32.424v356.08c11.136-2.048 22.56-3.248 34.264-3.248 64.912 0 125.648 33.392 160.592 87.688A191.232 191.232 0 0 1 512 338.52c64.96 0 125.784 33.816 160.592 87.752 34.816-53.944 95.6-87.752 160.592-87.752 11.688 0 23.12 1.2 34.248 3.248v-356.08z m-34.256 413.296c-50.464 0-95.464 28.232-117.432 73.696-13.144 27.168-30.704 32.864-43.136 32.864s-30.032-5.696-43.192-32.92c-22.032-45.408-67.024-73.64-117.432-73.64a130.72 130.72 0 0 0-113.672 66.496c-14.944 26.576-33.512 32.152-46.464 32.152-13.096 0-32.096-5.816-48.16-33.568a130.904 130.904 0 0 0-112.872-65.08c-70.536 0-128.16 56.312-130.296 126.32l66.56 232.672c8.936 37.664 25.96 56.768 50.576 56.768h665.664c18.568 0 36.432-4.416 51.048-58.432l69.096-231.184c-2.24-69.96-59.808-126.144-130.288-126.144z"  horiz-adv-x="1024" />

    
    <glyph glyph-name="qiache" unicode="&#58904;" d="M943.471354 887.841062l-349.515084 1.140578c-83.779295 0-152.913562-61.773733-152.913561-144.199542l-0.003802-299.763048H229.472995c-18.553411-0.007604-31.970416-13.83902-31.970416-30.373606 0-19.834661 16.04794-30.989519 30.928687-30.989519h211.56211l1.045531-343.527046h-45.433045c-13.059624 58.766408-72.122582 106.704924-135.740251 106.40077-68.803499-1.39911-121.479217-46.406339-135.588174-106.40077l-62.91051 2.387611 0.087444 373.273335c0 131.67599 64.879909 223.401315 164.969477 223.401315l84.513067 0.045623c15.473849 0 30.677761 12.455118 30.677761 30.681562 0 18.142803-15.652539 30.673959-29.149385 30.63594H242.821566c-69.434619 0-132.80136-23.891318-176.07491-76.31611C23.59857 571.961639 0 498.656657 0 413.406016V7.983574c0-20.636868 18.583826-36.319822 39.562867-36.319822h86.334191c16.576408-56.709565 70.339478-99.663752 133.964751-99.663752 63.629074 0 119.266495 50.05619 135.842903 106.765754h295.991535c13.877039-61.188236 71.753795-106.765754 135.379068-106.765754 63.625272 0 119.51362 50.261494 136.09383 106.967257h96.46633c20.975239 0 37.566855 15.682955 37.566855 36.31602l-2.12908 729.495019c0.007604 82.425809-67.826403 144.19574-151.601896 144.19574L943.558798 896l-0.087444-8.158938zM259.861809-66.925822c-39.874625 0-72.316481 33.609047-72.316481 74.913198s32.441855 74.909396 72.316481 74.909396c39.882229 0 72.324085-33.609047 72.324085-74.905594 0-41.311754-32.441855-74.917-72.324085-74.917z m567.217307-0.745178c-42.399106 0-76.897805 33.939815-76.897804 75.658376 0 41.714759 34.498699 75.658376 76.897804 75.658376 42.402908 0 76.894003-33.943617 76.894003-75.658376 0-41.718561-34.494897-75.658376-76.894003-75.658376z m206.634811 107.480517l-70.590405 0.319362c-12.73646 60.492483-72.419133 106.419779-136.044406 106.396968-67.925253-0.01901-122.703438-48.235066-135.382869-106.396968h-189.290413l0.072236 704.653219c0 41.212904 34.673587 82.832615 76.559433 82.832615l379.466676-0.825018c41.882044 0 75.095691-41.615909 75.09569-82.828813v-697.920004l0.114058-6.235162z"  horiz-adv-x="1097" />

    
    <glyph glyph-name="liucheng" unicode="&#59064;" d="M513.8 582.7c69.1 0 125.1 56 125.1 125.1S582.9 833 513.8 833s-125.1-56-125.1-125.1 56-125.2 125.1-125.2z m0 214.3c49.2 0 89.1-40 89.1-89.1s-40-89.1-89.1-89.1c-49.2 0-89.1 40-89.1 89.1s40 89.1 89.1 89.1zM298.1 212.9c-23.2 40.1-65.2 62.6-108.5 62.6-21.2 0-42.7-5.4-62.5-16.8-59.9-34.6-80.4-111.1-45.8-170.9 23.2-40.1 65.2-62.6 108.5-62.6 21.2 0 42.7 5.4 62.5 16.8 59.8 34.5 80.3 111 45.8 170.9z m-63.8-139.8c-13.6-7.8-28.9-12-44.5-12-15.4 0-30.6 4-44.1 11.6a88.38 88.38 0 0 0-33.2 33c-11.9 20.6-15.1 44.6-8.9 67.6 6.2 23 20.9 42.2 41.5 54.1 13.6 7.8 28.9 12 44.5 12 15.4 0 30.6-4 44.1-11.6a88.38 88.38 0 0 0 33.2-33c24.6-42.5 9.9-97.1-32.6-121.7zM897.2 256.8c-19.7 11.4-41.2 16.8-62.5 16.8-43.2 0-85.3-22.4-108.5-62.6-34.6-59.9-14-136.4 45.8-170.9 19.7-11.4 41.2-16.8 62.5-16.8 43.2 0 85.3 22.4 108.5 62.6 34.5 59.8 14 136.3-45.8 170.9z m14.6-153c-8-13.8-19.5-25.2-33.2-33-13.4-7.6-28.7-11.6-44.1-11.6a88.7 88.7 0 0 0-44.5 12c-20.6 11.9-35.4 31.1-41.5 54.1-6.2 23-3 47 8.9 67.6 8 13.8 19.5 25.2 33.2 33 13.4 7.6 28.7 11.6 44.1 11.6 15.5 0 30.9-4.1 44.4-12 20.6-11.9 35.4-31.1 41.5-54.1 6.3-22.9 3.1-47-8.8-67.6zM683.6 669.6c122.8-64.1 199.1-189.9 199.1-328.2 0-8.1-0.3-16.2-0.8-24.3-0.6-9.9 6.9-18.5 16.8-19.1h1.2c9.4 0 17.3 7.3 17.9 16.8 0.6 8.8 0.9 17.8 0.9 26.6 0 75.6-20.9 149.4-60.5 213.4-38.5 62.2-93.1 112.9-157.9 146.8-8.8 4.6-19.7 1.2-24.3-7.6-4.6-8.9-1.2-19.8 7.6-24.4zM125.4 300.2h1.1c9.9 0.6 17.5 9.1 16.9 19-0.4 7.4-0.7 14.8-0.7 22.1 0 139.3 77 265.5 201.1 329.3 8.8 4.5 12.3 15.4 7.8 24.2-4.5 8.8-15.4 12.3-24.2 7.8C262 669 206.9 618.2 168 555.8c-40-64.2-61.2-138.4-61.2-214.4 0-8 0.2-16.1 0.7-24.2 0.5-9.7 8.4-17 17.9-17zM709.4 27.9c-58.8-37-126.8-56.5-196.6-56.5-70.6 0-139.2 19.9-198.5 57.7-8.4 5.3-19.5 2.9-24.9-5.5-5.3-8.4-2.9-19.5 5.5-24.9 65-41.4 140.4-63.3 217.8-63.3 76.6 0 151.2 21.5 215.8 62.1 8.4 5.3 10.9 16.4 5.7 24.8-5.3 8.3-16.4 10.9-24.8 5.6z"  horiz-adv-x="1024" />

    
    <glyph glyph-name="yincangmima" unicode="&#58925;" d="M456.533333 8.533333c-234.666667 0-433.066667 305.066667-441.6 317.866667L0 349.866667l14.933333 23.466666c8.533333 12.8 206.933333 317.866667 441.6 317.866667s433.066667-305.066667 441.6-317.866667l14.933334-23.466666-14.933334-23.466667c-8.533333-12.8-206.933333-317.866667-441.6-317.866667z m-354.133333 341.333334c49.066667-66.133333 198.4-256 354.133333-256 155.733333 0 305.066667 189.866667 354.133334 256-49.066667 66.133333-198.4 256-354.133334 256-142.933333 0-290.133333-166.4-354.133333-256zM66.325333 793.237333l72.405334 72.426667L1004.586667-0.213333l-72.405334-72.405334zM14.378667 750.869333l60.352 60.352 853.802666-853.802666-60.352-60.352z"  horiz-adv-x="1024" />

    
    <glyph glyph-name="shijian" unicode="&#58989;" d="M512 896C228.266667 896 0 667.733333 0 384s228.266667-512 512-512 512 228.266667 512 512S795.733333 896 512 896z m0-981.333333C253.866667-85.333333 42.666667 125.866667 42.666667 384S253.866667 853.333333 512 853.333333s469.333333-211.2 469.333333-469.333333-211.2-469.333333-469.333333-469.333333zM761.6 341.333333H490.666667V616.533333c0 12.8-8.533333 23.466667-21.333334 23.466667s-21.333333-10.666667-21.333333-23.466667V320c0-4.266667 2.133333-6.4 4.266667-10.666667 4.266667-6.4 10.666667-10.666667 17.066666-10.666666H761.6c14.933333 0 27.733333 8.533333 27.733333 21.333333s-12.8 21.333333-27.733333 21.333333z"  horiz-adv-x="1024" />

    
    <glyph glyph-name="jia1" unicode="&#59024;" d="M768 405.333333H533.333333V640c0 12.8-8.533333 21.333333-21.333333 21.333333s-21.333333-8.533333-21.333333-21.333333v-234.666667H256c-12.8 0-21.333333-8.533333-21.333333-21.333333s8.533333-21.333333 21.333333-21.333333h234.666667v-234.666667c0-12.8 8.533333-21.333333 21.333333-21.333333s21.333333 8.533333 21.333333 21.333333V362.666667h234.666667c12.8 0 21.333333 8.533333 21.333333 21.333333s-8.533333 21.333333-21.333333 21.333333zM512 896C228.266667 896 0 667.733333 0 384s228.266667-512 512-512 512 228.266667 512 512S795.733333 896 512 896z m0-981.333333C253.866667-85.333333 42.666667 125.866667 42.666667 384S253.866667 853.333333 512 853.333333s469.333333-211.2 469.333333-469.333333-211.2-469.333333-469.333333-469.333333z"  horiz-adv-x="1024" />

    
    <glyph glyph-name="jian" unicode="&#59026;" d="M768 405.333333H256c-12.8 0-21.333333-8.533333-21.333333-21.333333s8.533333-21.333333 21.333333-21.333333h512c12.8 0 21.333333 8.533333 21.333333 21.333333s-8.533333 21.333333-21.333333 21.333333zM512 896C228.266667 896 0 667.733333 0 384s228.266667-512 512-512 512 228.266667 512 512S795.733333 896 512 896z m0-981.333333C253.866667-85.333333 42.666667 125.866667 42.666667 384S253.866667 853.333333 512 853.333333s469.333333-211.2 469.333333-469.333333-211.2-469.333333-469.333333-469.333333z"  horiz-adv-x="1024" />

    
    <glyph glyph-name="jian-tianchong" unicode="&#59027;" d="M512 896C228.266667 896 0 667.733333 0 384s228.266667-512 512-512 512 228.266667 512 512S795.733333 896 512 896z m256-533.333333H256c-12.8 0-21.333333 8.533333-21.333333 21.333333s8.533333 21.333333 21.333333 21.333333h512c12.8 0 21.333333-8.533333 21.333333-21.333333s-8.533333-21.333333-21.333333-21.333333z"  horiz-adv-x="1024" />

    
    <glyph glyph-name="wode" unicode="&#58888;" d="M909.952-33.024a397.76 397.76 0 0 1-269.056 376.064l-9.792 3.392 8.832 5.184a255.104 255.104 0 0 1 126.208 219.264c0 140.096-113.984 254.08-254.144 254.08S257.856 710.976 257.856 570.88c0-89.728 48.32-173.76 126.144-219.264l8.832-5.184-9.728-3.392a397.696 397.696 0 0 1-269.056-376.064l0.064-0.896-0.064-0.768c0-12.352 9.6-22.4 21.504-22.4H888.32a22.016 22.016 0 0 1 21.568 22.4l-0.128 0.768c0 0.256 0.192 0.576 0.192 0.896zM305.984 570.88c0 115.456 92.416 209.408 206.016 209.408s205.952-93.952 205.952-209.408c0-104.256-76.544-193.408-178.176-207.296l-0.512-0.128-5.248 0.384a315.968 315.968 0 0 1-44.032 0l-5.248-0.384-0.512 0.128c-101.568 13.888-178.24 103.04-178.24 207.296zM512 316.8a350.144 350.144 0 0 0 349.12-329.088H162.752A350.336 350.336 0 0 0 512 316.8z m0 0"  horiz-adv-x="1024" />

    
    <glyph glyph-name="liwu" unicode="&#58957;" d="M909.2383156906668 410.6305014139259H114.7616843093333c-24.411293468444445 0-44.384169832296294 19.97287636385185-44.38416861866666 44.384169832296294v190.8519282157037c0 24.411293468444445 19.97287636385185 44.384169832296294 44.38416861866666 44.38416861866666H911.4575236361482c24.411293468444445 0 44.384169832296294-19.97287636385185 44.384169832296294-44.38416861866666v-190.8519282157037c-2.2192079454814815-24.411293468444445-22.19208430933333-44.384169832296294-46.60337777777777-44.384169832296294z m0 44.384169832296294v-22.19208552296296 22.19208552296296z m-794.4766313813333 190.8519282157037v-190.8519282157037H911.4575236361482v190.8519282157037H114.7616843093333zM849.319686599111-86.47219488237056H212.40685696948145c-13.315251313777777 0-22.19208430933333 8.876834209185184-22.19208430933333 22.19208430933333s8.876834209185184 22.19208430933333 22.19208430933333 22.19208552296296h639.1320387887406V410.6305014139259H174.6803134008889v-397.23831569066664c0-13.315251313777777-8.876834209185184-22.19208430933333-22.19208430933333-22.19208430933333s-22.19208430933333 8.876834209185184-22.19208552296296 22.19208430933333V408.4112934684444c0 24.411293468444445 19.97287636385185 44.384169832296294 44.384169832296294 44.38416861866666h676.8585823573334c24.411293468444445 0 44.384169832296294-19.97287636385185 44.38416861866666-44.38416861866666v-452.71852767762954c-2.2192079454814815-24.411293468444445-22.19208430933333-42.164960673185185-46.60337777777777-42.164960673185185zM512-77.59536067318504c-13.315251313777777 0-22.19208430933333 8.876834209185184-22.19208430933333 22.19208430933333V659.181849562074c0 13.315251313777777 8.876834209185184 22.19208430933333 22.19208430933333 22.19208430933333s22.19208430933333-8.876834209185184 22.19208430933333-22.19208430933333v-714.5851259259258c0-11.096042154666666-8.876834209185184-22.19208430933333-22.19208430933333-22.19208430933333zM520.8768342091852 636.9897652527407L341.12094814814816 805.6496079454816c-8.876834209185184 8.876834209185184-8.876834209185184 22.19208430933333 0 31.06891851851852 8.876834209185184 8.876834209185184 22.19208430933333 8.876834209185184 31.06891851851852 0l148.68696754251854-139.81013333333334 133.15250706962962 139.81013333333334c8.876834209185184 8.876834209185184 22.19208430933333 8.876834209185184 31.06891851851852 0 8.876834209185184-8.876834209185184 8.876834209185184-22.19208430933333 0-31.06891851851852l-164.22142558814815-168.65984269274074z"  horiz-adv-x="1024" />

    
    <glyph glyph-name="shujukushenji" unicode="&#59182;" d="M540.032 169.536c-31.168-3.904-64.064-6.528-99.84-6.528-203.584 0-340.352 68.928-340.352 133.312a17.856 17.856 0 0 1-17.92 17.856 17.792 17.792 0 0 1-17.92-17.792c0-94.848 165.248-169.152 376.192-169.152 34.88 0 67.968 2.624 99.84 6.464v35.84zM440.192 318.4c211.008 0 376.192 74.304 376.32 169.088a17.92 17.92 0 0 1-35.84 0c0-64.384-136.832-133.312-340.352-133.312S99.904 423.104 99.904 487.488a17.984 17.984 0 0 1-35.904 0c0-94.848 165.248-169.088 376.192-169.088zM440.192 509.44c211.008 0 376.192 74.368 376.32 169.216a17.92 17.92 0 1 1-35.84 0c0-64.384-136.832-133.312-340.352-133.312S99.904 614.208 99.904 678.656a17.984 17.984 0 0 1-35.904 0C64 583.744 229.184 509.44 440.192 509.44zM657.344 146.624a25.472 25.472 0 0 1-18.56-7.744c-4.8-4.672-7.68-11.2-7.68-18.496s2.88-13.888 7.68-18.56v-0.192a26.432 26.432 0 0 1 37.056 0v0.192a25.728 25.728 0 0 1 0 37.056 25.92 25.92 0 0 1-18.496 7.744z m6.208-32.576a9.6 9.6 0 0 0-6.272-2.432 9.664 9.664 0 0 0-6.336 2.432 9.28 9.28 0 0 0 0 12.48 8.768 8.768 0 0 0 15.04-6.144 8.768 8.768 0 0 0-2.432-6.336zM947.84 64a45.248 45.248 0 0 1 12.096 30.784v51.264a44.16 44.16 0 0 1-12.224 30.592 45.952 45.952 0 0 1 12.224 30.912v51.264a46.144 46.144 0 0 1-13.312 32.128h-0.256a44.608 44.608 0 0 1-31.936 13.44H625.6a45.312 45.312 0 0 1-32.192-13.44 45.12 45.12 0 0 1-13.376-32.128v-51.2c0-11.776 4.48-22.656 12.032-30.912a44.736 44.736 0 0 1-12.032-30.528v-51.392a44.8 44.8 0 0 1 12.032-30.784 45.312 45.312 0 0 1-12.032-30.72v-51.392c0-12.416 5.056-23.936 13.376-32v-0.192a46.08 46.08 0 0 1 32.192-13.184h288.832c12.48 0 23.808 5.12 32.064 13.184l0.256 0.192a45.824 45.824 0 0 1 13.248 32v51.392a44.8 44.8 0 0 1-12.16 30.72zM609.408 258.816a16 16 0 0 0 4.608 11.456l0.192 0.256a16.192 16.192 0 0 0 11.392 4.48h288.832c4.608 0 8.64-1.728 11.52-4.736l0.128-0.256a15.168 15.168 0 0 0 4.544-11.264v-51.136a16.64 16.64 0 0 0-4.672-11.52l-0.32-0.192a15.552 15.552 0 0 0-10.752-4.544H625.28a16.448 16.448 0 0 0-11.2 4.736l-0.192 0.256a16.512 16.512 0 0 0-4.416 11.264v51.2z m321.216-276.928a16.64 16.64 0 0 0-4.672-11.456l-0.32-0.256a15.296 15.296 0 0 0-11.2-4.352H625.6a16.384 16.384 0 0 0-11.648 4.48l-0.192 0.448a15.808 15.808 0 0 0-4.416 11.136v51.392c0 4.352 1.728 8.448 4.608 11.392l0.128 0.256a16.832 16.832 0 0 0 11.072 4.544h289.664a16.896 16.896 0 0 0 11.072-4.736l0.128-0.192a15.232 15.232 0 0 0 4.544-11.2v-51.456z m0 112.832a16.768 16.768 0 0 0-4.672-11.584l-0.32-0.192a16.832 16.832 0 0 0-10.752-4.544H625.28a17.664 17.664 0 0 0-11.2 4.736l-0.192 0.256a16.64 16.64 0 0 0-4.416 11.328v51.328c0 4.352 1.728 8.384 4.608 11.456l0.192 0.128a18.112 18.112 0 0 0 11.008 4.608h289.728a18.048 18.048 0 0 0 11.008-4.736l0.192-0.128c2.944-3.2 4.544-6.976 4.544-11.328l-0.128-51.328zM638.72 214.656c4.672-4.608 11.392-7.68 18.56-7.68 7.04 0 13.824 3.008 18.496 7.68v0.192a26.048 26.048 0 0 1 7.872 18.368 26.24 26.24 0 0 1-7.872 18.688 27.136 27.136 0 0 1-18.496 7.744 26.88 26.88 0 0 1-18.56-7.744 26.048 26.048 0 0 1 0-37.056v-0.192z m12.288 24.832v0.128a10.56 10.56 0 0 0 6.336 2.624c2.304 0 4.608-1.28 6.272-2.496v-0.192a9.6 9.6 0 0 0 2.432-6.336 8.32 8.32 0 0 0-2.432-6.208 8.832 8.832 0 0 0-6.272-2.56 8.384 8.384 0 0 0-6.336 2.56 8.576 8.576 0 0 0-2.432 6.144c0 2.496 0.896 4.736 2.432 6.336zM657.344 33.92a26.048 26.048 0 0 1-18.56-7.808 27.072 27.072 0 0 1-7.68-18.624c0-7.232 2.88-13.824 7.68-18.56a26.048 26.048 0 0 1 37.056 0 26.496 26.496 0 0 1 7.872 18.56 26.944 26.944 0 0 1-26.368 26.432z m6.208-32.576v-0.128a9.152 9.152 0 0 0-6.272-2.624 8.448 8.448 0 0 0-6.336 2.624v0.128a8.064 8.064 0 0 0-2.432 6.144c0 2.24 0.96 4.8 2.432 6.336a8.32 8.32 0 0 0 6.336 2.496 8.32 8.32 0 0 0 6.272-2.496 9.472 9.472 0 0 0 2.432-6.336 7.68 7.68 0 0 0-2.432-6.144zM440.192 831.872C229.184 831.872 64 757.568 64 662.656v-557.376c0-94.784 165.248-169.216 376.192-169.216 34.88 0 67.968 2.624 99.84 6.464v35.968c-31.168-3.904-64.064-6.528-99.84-6.528-203.584 0-340.352 68.928-340.352 133.312V662.656c0 64.384 136.832 133.312 340.352 133.312s340.288-68.928 340.288-133.312v-324.48h35.84v324.48c0.064 94.912-165.12 169.216-376.128 169.216z"  horiz-adv-x="1024" />

    
    <glyph glyph-name="wujiaoxing" unicode="&#58987;" d="M558.2 798.192l97.248-206.08c7.568-15.872 22.064-26.96 38.888-29.48l217.6-33.048c42.248-6.432 59.208-60.8 28.592-92.008L783.032 277.152a55.392 55.392 0 0 1-14.784-47.632l37.144-226.56c7.216-44.024-37-77.664-74.8-56.88l-194.648 106.992a49.448 49.448 0 0 1-47.984 0l-194.56-106.992c-37.792-20.784-82.016 12.856-74.792 56.88l37.152 226.56a55.296 55.296 0 0 1-14.84 47.632l-157.456 160.48C52.84 468.8 69.808 523.112 112.056 529.536l217.56 33.048c16.824 2.52 31.312 13.6 38.832 29.488l97.256 206.08a50.608 50.608 0 0 0 92.504 0"  horiz-adv-x="1024" />

    
    <glyph glyph-name="plus" unicode="&#58880;" d="M914.817322 358.68852100000004L109.182678 358.68852100000004c-13.482059 0-24.413016 11.06501-24.413016 24.559349s10.930957 24.559349 24.413016 24.559349l805.634644 0c13.482059 0 24.413016-11.06501 24.413016-24.559349S928.299381 358.68852100000004 914.817322 358.68852100000004zM536.440645 786.064168l0-805.634644c0-13.482059-11.06501-24.413016-24.559349-24.413016s-24.559349 10.930957-24.559349 24.413016l0 805.634644c0 13.482059 11.06501 24.413016 24.559349 24.413016S536.440645 799.546228 536.440645 786.064168z"  horiz-adv-x="1024" />

    
    <glyph glyph-name="daipingjia" unicode="&#58881;" d="M262.858 429.856c0-25.325 20.53-45.855 45.855-45.855s45.855 20.53 45.855 45.855c0 25.325-20.53 45.855-45.855 45.855-25.325 0-45.855-20.53-45.855-45.855zM460.812 429.856c0-25.325 20.53-45.855 45.855-45.855s45.855 20.53 45.855 45.855c0 25.325-20.53 45.855-45.855 45.855-25.325 0-45.855-20.53-45.855-45.855zM662.09 429.856c0-25.325 20.53-45.855 45.855-45.855s45.855 20.53 45.855 45.855c0 25.325-20.53 45.855-45.855 45.855-25.325 0-45.855-20.53-45.855-45.855zM505.374-34.572l-97.946 101.425H104.932c-52.156 0-94.587 42.431-94.587 94.586V707.985c0 52.156 42.431 94.587 94.587 94.587h817.199c52.155 0 94.586-42.431 94.586-94.587v-546.546c0-52.155-42.431-94.586-94.586-94.586H610.403L505.375-34.572zM104.933 765.314c-31.611 0-57.329-25.718-57.329-57.329v-546.546c0-31.61 25.718-57.328 57.329-57.328h318.31l83.051-86.001 89.056 86.001h326.781c31.61 0 57.328 25.718 57.328 57.328V707.986c0 31.611-25.718 57.329-57.328 57.329H104.932z"  horiz-adv-x="1024" />

    
    <glyph glyph-name="shouye" unicode="&#58912;" d="M95.418182-128H928.581818M954.181818 407.272727c-2.327273 0 2.327273 0 0 0z m69.818182 48.872728c0 18.618182-9.309091 30.254545-23.272727 44.218181L570.181818 870.4S537.6 896 512 896c-23.272727 0-62.836364-30.254545-62.836364-30.254545L23.272727 500.363636c-18.618182-13.963636-23.272727-23.272727-23.272727-44.218181 0-23.272727 0-48.872727 69.818182-48.872728h69.818182v-442.181818c0-60.509091 34.909091-93.090909 69.818181-93.090909h256V104.727273c0 51.2 41.890909 93.090909 93.09091 93.090909s93.090909-41.890909 93.090909-93.090909v-232.727273h162.909091c39.563636 0 69.818182 58.181818 69.818181 93.090909V407.272727h69.818182c67.490909 0 69.818182 23.272727 69.818182 48.872728z m-186.181818-2.327273v-465.454546c0-32.581818-25.6-69.818182-46.545455-69.818181h-93.090909v186.181818c0 76.8-62.836364 139.636364-139.636363 139.636363s-139.636364-62.836364-139.636364-139.636363v-186.181818h-186.181818 2.327272C200.145455-81.454545 186.181818-41.890909 186.181818-11.636364V453.818182H46.545455S349.090909 719.127273 465.454545 812.218182c41.890909 34.909091 46.545455 37.236364 93.09091-2.327273C677.236364 714.472727 977.454545 453.818182 977.454545 453.818182h-139.636363z"  horiz-adv-x="1024" />

    
    <glyph glyph-name="erweima" unicode="&#58882;" d="M62.996776 411.938306l423.162696 0L486.159472 835.099978 62.996776 835.099978 62.996776 411.938306zM168.788218 729.30956l211.580836 0 0-211.580836L168.788218 517.728724 168.788218 729.30956zM539.055193 835.099978l0-423.162696 423.162696 0L962.217888 835.099978 539.055193 835.099978zM856.426447 517.728724L644.845611 517.728724 644.845611 729.30956l211.580836 0L856.426447 517.728724zM221.682915 570.623421l105.790418 0L327.473333 676.414863 221.682915 676.414863 221.682915 570.623421zM62.996776-64.12011099999995l423.162696 0L486.159472 359.04258500000003 62.996776 359.04258500000003 62.996776-64.12011099999995zM168.788218 253.252167l211.580836 0 0-211.580836L168.788218 41.67133100000001 168.788218 253.252167zM803.531749 676.414863L697.740308 676.414863l0-105.790418 105.790418 0L803.530726 676.414863zM539.055193-64.12011099999995l105.790418 0L644.845611 41.67030799999998 539.055193 41.67030799999998 539.055193-64.12011099999995zM644.845611 253.252167l0-211.580836 105.790418 0L750.636029 253.252167 644.845611 253.252167zM856.426447 41.67030799999998L750.636029 41.67030799999998 750.636029-64.12011099999995l211.580836 0L962.216865 147.46174900000005 856.426447 147.46174900000005 856.426447 41.67030799999998zM856.426447 253.252167l105.790418 0L962.216865 359.04258500000003 856.426447 359.04258500000003 856.426447 253.252167zM539.055193 359.04258500000003l0-105.790418 105.790418 0L644.845611 359.04258500000003 539.055193 359.04258500000003zM221.682915 94.56602799999996l105.790418 0L327.473333 200.356446 221.682915 200.356446 221.682915 94.56602799999996z"  horiz-adv-x="1024" />

    
    <glyph glyph-name="dingwei" unicode="&#59233;" d="M480 1.3120000000000118V160a32 32 0 0 0 64 0v-158.688c186.56 15.392 335.296 164.16 350.688 350.688H736a32 32 0 0 0 0 64h158.688C879.296 602.56 730.528 751.296 544 766.688V608a32 32 0 0 0-64 0V766.688C293.44 751.296 144.704 602.528 129.312 416H288a32 32 0 0 0 0-64H129.312C144.704 165.44000000000005 293.472 16.70399999999995 480 1.3120000000000118zM512-64C264.576-64 64 136.57600000000002 64 384S264.576 832 512 832s448-200.576 448-448-200.576-448-448-448z"  horiz-adv-x="1024" />

    
    <glyph glyph-name="daishouhuo" unicode="&#59001;" d="M868.3 742.9H401.5c-32.9 0-59.7-25.3-59.7-56.3v-93.3c0-1.5-0.7-2.8-2.1-3.4l-164.8-82C128.4 484.7 98 439.4 98 389.7v-282.5h124.8v-0.2l4.5 0.1C238.4 60.2 279 25 331.9 25c52.9 0 94.7 35.2 105.8 82.1l3.6-0.1v0.2h140.1v-0.2l6.9 0.4c11.1-46.9 53.3-82.4 106.3-82.4 52.9 0 93.7 35.4 104.7 82.4l128.7-0.2V686.6c0 31-26.8 56.3-59.7 56.3zM331.9 59c-41.4 0-75 31.9-75 71 0 39.2 33.6 71 75 71s75.1-31.9 75.1-71c0-39.2-33.7-71-75.1-71z m362.7 0.6c-41 0-74.4 31.6-74.4 70.4 0 38.8 33.4 70.4 74.4 70.4 41 0 74.3-31.6 74.3-70.4 0-38.8-33.3-70.4-74.3-70.4zM888 156v-9.6l-86.5 0.2c-12.3 45.2-51.5 88.8-106.9 88.4-56.6-0.4-95.8-43.3-108.2-88.5H437.8c-12.3 45.2-49.8 88.2-105.9 88.5-64.9 0.4-94.6-43.1-107-88.3l-86.9-0.1v243c0 31 25.7 68.3 56.1 83.5l163.8 81.5c19 9 23.9 18.5 23.9 38.7v93.3c0 3.9 15 16.8 19.3 16.8h466.8c4.2 0 23.7-13.9 23.7-17.8L888 156zM388.8 499.4c-14.3 0-20.1-11.1-20.1-24.8l0.2-133.7H227.7c-14.3 0-25.4-7.3-25.4-21 0-10 10.9-19 25.2-19h155.4c14.3 0 25.9 11.1 25.9 24.8V474.6c0 13.7-5.7 24.8-20 24.8z"  horiz-adv-x="1024" />

    
    <glyph glyph-name="yishiyong" unicode="&#58908;" d="M208.1648352 367.58125653c-24.93374187 6.09945067-34.03489173 20.63203627-27.2805248 43.61958614l25.90520107 96.6776032 32.22623146-8.63506667-5.09306346-19.0045696 97.50498026-26.1267808 10.62819414 39.66280213-135.51412054 36.31181547 7.74983894 28.92108907 167.740352-44.94579094-26.1267808-97.50388906-129.7312128 34.76075626-10.84868267-40.489088c-3.5092576-10.8770624 0.31872533-17.5069952 11.49377493-19.90617066l78.49931947-21.03262614c12.92367467-4.65426987 21.48015253-1.32838827 25.69126187 9.94162454 0.5883328 2.19615147 2.16449707 5.91061653 4.75250666 11.12593066 2.31403627 6.46511253 4.19801173 11.27437867 5.63773547 14.43107307 10.6827712-6.4050784 20.40063253-11.97077227 29.1863296-16.67634347-5.19457493-12.7785024-10.38041813-24.3814304-15.5269664-34.80660053-7.7323744-15.64157653-22.8205472-20.15067307-45.25578453-13.55676053L208.1648352 367.58125653zM400.9731872 308.83311146999995l23.69158507 88.41474666c-7.027248-6.39307093-13.90059093-12.21636587-20.630944-17.49826346 2.18414507 14.76071467 3.93931947 29.0553472 5.28735466 42.8642496 21.10575893 21.4943424 40.0164576 48.02062187 56.7430112 79.55919146l28.58053227-15.62847786c-7.84480213-13.8394656-17.13587627-27.59597547-27.87758933-41.24005867l-38.52543147-143.77697707L400.9731872 308.83311146999995zM569.7603136 264.49202560000003c-32.57224533 12.865824-56.43956693 25.17060373-71.59104747 36.8968736-9.88486507-3.84217387-26.52955413-6.46620373-49.93406826-7.87536427l-11.5374368 29.66005227c15.61101333-1.23560853 28.06424107-1.02930987 37.36295573 0.61562133-4.98718507 7.82624533-9.96236373 16.84007253-14.90261333 27.01965014l21.11776533 9.39695253-17.35309013 4.64990293 18.82010133 70.23646294 49.5793216-13.28497067 3.54309547 13.22057067-52.884464 14.1701984 6.86351893 25.61485546 52.884464-14.1701984 5.0919712 19.00566187 30.57256853-8.1919072-5.0919712-19.00566187 54.53703574-14.61335786-6.86351894-25.61485547-55.3633216 14.8338464-3.54309546-13.22057067 50.40560746-13.5054592-20.59055786-76.84674773-28.0948032 7.527168 1.77154773 6.61137707-23.96228373 6.42035946c-4.35846613-11.82559893-10.18612587-21.48779307-17.50262934-28.96365866 13.39630613-9.49846507 35.1635296-18.58324053 65.3213184-27.24559574-0.85139093-0.96054293-2.12192747-2.39153493-3.8072448-4.29406613C577.83215253 275.91812692999997 572.89081173 269.56216746999996 569.7603136 264.49202560000003zM499.97246827 334.55821013c4.63353067 4.07248533 8.5237312 9.81064107 11.70225706 17.23411414l-28.92108906 7.74983893C487.2954784 350.04915627 493.03690773 341.73063147000005 499.97246827 334.55821013zM503.41732587 403.6016352l-5.9782912-22.31080427 21.4845184-5.75562026 5.9782912 22.309712L503.41732587 403.6016352zM576.95784 383.89630507000004l-22.309712 5.9782912-6.80348587-22.08922454 23.13599787-6.19987093L576.95784 383.89630507000004zM637.0289152 242.92564267c-1.50412373 0.99765547-3.41647787 2.68624747-5.72396587 5.07559893-7.89610347 8.02490347-14.01520213 13.80235413-18.3845824 17.3247104 10.9523776 10.04531947 19.01002773 20.28493013 24.17294827 30.71992533 4.99810027 9.8706752 10.39133333 25.55700373 16.1469536 47.04152214l24.7983936 92.54617493 171.87178027-46.05259947-42.28901547-157.82383253c-4.06702827-19.571072-15.936288-26.42258453-35.6219712-20.56763627-6.75436693 1.2301504-16.47659413 3.5289056-29.1426688 6.92355307 0.71058347 9.260512 1.2094112 18.86922027 1.52377067 28.81739413 7.55882133-2.619664 14.0959744-4.6619104 19.61036693-6.1398368 8.65798933-2.91437653 13.67246187-0.7160416 15.05215147 6.59391254l4.64990293 17.35309013-41.31646507 11.07135467-13.5065504-50.40669867-30.5736608 8.1929984 13.5065504 50.40560747-40.489088 10.84868266C665.73715733 276.26304853 654.3088736 258.96890133 637.0289152 242.92564267zM683.81283733 334.89440106999996c-1.32838827-4.95771413-2.5116032-9.37293867-3.54200426-13.22057067l38.83651733-10.4055232 6.6419392 24.7896608-38.83651733 10.4055232L683.81283733 334.89440106999996zM700.861392 398.51948693l-6.6419392-24.7885696 38.83651733-10.4055232 6.6419392 24.78747734L700.861392 398.51948693zM756.3229504 327.8638784l-6.6419392-24.7896608 41.31646507-11.0702624 6.6419392 24.7885696L756.3229504 327.8638784zM811.58803413 368.85070186999997l-41.31646506 11.07135466-6.6419392-24.7885696 41.31646506-11.07135466L811.58803413 368.85070186999997zM512 612.95207253c75.43431253 0 142.33943573-36.48645973 184.05103467-92.76666346l29.18087253-7.8186048c-43.56173547 72.2066688-122.75526613 120.49471467-213.23190613 120.49471466-43.71236587 0-84.78214613-11.2842016-120.4827072-31.0768544l29.12520426-7.80441493C448.63033067 606.1736928 479.5216256 612.95207253 512 612.95207253zM662.3414176 625.90194453l15.9788576-12.9509632 4.92496853 19.4106176 17.88575467 10.45245867-17.88575467 10.45245867-4.92496853 19.4106176-15.9788576-12.95314667-20.93438933 1.54669333 8.01289706-18.4577152-8.01289706-18.45553173L662.3414176 625.90194453zM385.10675733 669.34142933l-16.4383904 11.43919894-3.58784746-20.2532768-16.82697387-12.54709867 18.1466304-8.696192 6.03395947-19.19449493 14.80437546 14.88187413 20.55781227 0.683296-8.99636267 17.892304 6.66922774 19.61800747L385.10675733 669.34142933zM538.99672747 697.32489707l-12.182528 15.89481066-9.57596267-18.20448106-19.84286187-6.83841387 14.64282987-13.79907947-0.08186453-20.12229333 18.62471893 9.6774752 19.793744-5.59625707-3.13158933 19.77955414 12.31569493 16.6599712L538.99672747 697.32489707zM761.74019733 572.32981867l-17.2592192 11.9467584-2.45484373-19.97275414-16.26374613-11.84197226 18.82555946-9.2834336 7.20516694-19.26762774 14.0850592 14.232416 20.71935786-0.0633088-10.11736 18.08113814 5.59843947 19.2283328L761.74019733 572.32981867zM985.9081088 421.90435307L120.5359872 653.78280853c-21.24110827 5.690128-43.07273173-6.91591253-48.7672256-28.1570208L9.93705387 394.86069013c-5.690128-21.24110827 6.91482133-43.0749152 28.15483733-48.7672256l865.3721216-231.8740896c21.24110827-5.69231147 43.0749152 6.91263787 48.7672256 28.15483734l61.83061653 230.76509866C1019.7552576 394.38041813 1007.14921707 416.21422507 985.9081088 421.90435307zM992.25533653 368.67605760000004l-56.6786112-211.5334912c-4.27005227-15.93083093-20.64513387-25.38563413-36.5748736-21.11776533L52.8602464 362.74688533000005c-15.93083093 4.27005227-25.38345173 20.64513387-21.11776533 36.5748736l56.68297706 211.53785707c4.2667776 15.93083093 20.64295147 25.38345173 36.5748736 21.11558187l846.13942294-226.72208427C987.07058453 400.9841536 996.5253888 384.60688853 992.25533653 368.67605760000004zM512 742.35910187c165.84546133 0 305.35129493-112.6662848 346.2191424-265.62736747l22.0302816-5.902976c-39.24038187 167.06033067-189.21722987 291.43869653-368.2483328 291.43869653-108.55341333 0-206.421872-45.7305984-275.40526293-118.9731264l22.0084512-5.89751786C323.45296747 702.24877333 413.04219733 742.35910187 512 742.35910187zM603.35859413 174.02084266999998c-27.98892587-12.19453547-58.88021973-18.971824-91.35859413-18.971824-75.43322133 0-142.33943573 36.48645973-184.05212587 92.76884693l-29.18196373 7.81969707c43.56173547-72.20776 122.75526613-120.49689707 213.2340896-120.49689707 43.71236587 0 84.7832384 11.2842016 120.4837984 31.0768544L603.35859413 174.02084266999998zM389.75556907 132.68472959999997l-15.85114987 12.92258347-4.88349013-19.3669568-17.7427648-10.4262624 17.7427648-10.4284448 4.88349013-19.3658656 15.85114987 12.9204 20.76083626-1.5412352-7.9474048 18.4140544 7.9474048 18.4140544L389.75556907 132.68472959999997zM511.93778347 71.36385600000006l12.0832-15.8598816 9.49846506 18.16300267 19.68131627 6.82094933-14.52494507 13.76742507 0.084048 20.0742656-18.47299626-9.65346134-19.6343808 5.58425067 3.10539306-19.73370987-12.2141824-16.62176746L511.93778347 71.36385600000006zM260.27104107 196.50083307l16.233184-13.1005024 3.83453333 19.70423786 16.92630293 10.64675094-17.96980266 10.55724586-5.77308374 19.6780416-14.9397248-13.17800106-20.49668693 1.51503893 8.735488-18.70221653-6.89408213-18.74042027L260.27104107 196.50083307zM512 25.640898129999982c-165.84437013 0-305.35238613 112.66737707-346.2191424 265.62845867l-22.0302816 5.902976c39.23929067-167.06033067 189.21722987-291.44088 368.249424-291.44088 108.55341333 0 206.4229632 45.7305984 275.40635413 118.9731264l-22.00736 5.89642667C700.54812373 65.75122667000005 610.95889387 25.640898129999982 512 25.640898129999982zM655.91887573 98.69240852999997l16.33360427-11.42937493 3.52235627 20.1910592 16.67743466 12.48488107-18.02547093 8.696192-6.02850133 19.14865173-14.6624768-14.81856533-20.40063254-0.6527328 8.9614336-17.85191787-6.5775392-19.5503328L655.91887573 98.69240852999997z"  horiz-adv-x="1024" />

    
    <glyph glyph-name="weibiaoti-" unicode="&#58893;" d="M772.654545-4.654545l-13.963636 4.654545C165.236364 181.527273 128 630.690909 125.672727 635.345455V663.272727l155.927273 116.363637 160.581818-209.454546-81.454545-90.763636c27.927273-95.418182 174.545455-200.145455 242.036363-242.036364l109.381819 74.472727 190.836363-169.890909-130.327273-146.618181zM172.218182 637.672727c2.327273-25.6 44.218182-416.581818 586.472727-588.8l83.781818 88.436364-128 114.036364-104.727272-69.818182-11.636364 6.981818c-9.309091 6.981818-249.018182 146.618182-279.272727 290.909091l-2.327273 11.636363 72.145454 79.127273L279.272727 712.145455l-107.054545-74.472728z"  horiz-adv-x="1024" />

    
    <glyph glyph-name="qianqian-" unicode="&#58889;" d="M883 343.5v87.7H617.8L864.9 789l-73 48-272.6-394.9L246 836.6 172.3 790l247.5-358.8H154.9v-87.1h320v-90.2h-320V165h320v-234h88.7V166.2H883v86.5H563.6v89.5z"  horiz-adv-x="1024" />

    
    <glyph glyph-name="xinxi" unicode="&#58910;" d="M287 337h382v-56H287zM287 487h450v-56H287zM511.3-92.2c-86.5 0-171.1 23.4-244.8 67.7-1.9 0.2-7.9 0.3-21.8-3-13.1-3.1-28.9-8.2-44.1-13.2-20.2-6.6-41.2-13.3-59.4-16.8-18.1-3.4-44.2-6-61.5 11.5-25.4 25.6-11 69.9 5.6 121.1 5 15.3 10.1 31.1 13.3 44.2 3.4 14.1 3.3 20 3.1 21.9-43.4 73.2-66.3 157-66.3 242.4 0 64.2 12.6 126.6 37.4 185.3 24 56.7 58.3 107.6 102 151.3s94.6 78 151.3 102c58.7 24.8 121 37.4 185.3 37.4S638 847 696.7 822.2c56.7-24 107.6-58.3 151.3-102s78-94.6 102-151.3c24.8-58.7 37.4-121 37.4-185.3S974.8 257 950 198.3c-24-56.7-58.3-107.6-102-151.3s-94.6-78-151.3-102c-58.8-24.6-121.1-37.2-185.4-37.2zM264.6 31.5c11.1 0 21-2.1 29.4-7.2 65.3-39.6 140.4-60.5 217.2-60.5 56.7 0 111.7 11.1 163.5 33 50 21.2 94.9 51.4 133.5 90s68.9 83.5 90 133.5c21.9 51.8 33 106.8 33 163.5s-11.1 111.7-33 163.5c-21.2 50-51.4 94.9-90 133.5s-83.5 68.9-133.5 90c-51.8 21.9-106.8 33-163.5 33s-111.7-11.1-163.5-33c-50-21.2-94.9-51.4-133.5-90s-68.9-83.5-90-133.5c-21.9-51.8-33-106.8-33-163.5 0-75.9 20.5-150.3 59.2-215.1 15.6-26 2.8-65.3-12-110.8-5.1-15.6-10.4-31.8-13.6-45.3-1.8-7.5-2.6-12.7-2.9-16.3 3.6 0.3 8.8 1.1 16.2 2.9 13.4 3.2 29.6 8.4 45.1 13.4 30.8 9.9 58.6 18.9 81.4 18.9z"  horiz-adv-x="1024" />

    
    <glyph glyph-name="more_light" unicode="&#58915;" d="M224 298.667c-40.533 0-74.667 34.133-74.667 74.666S183.467 448 224 448s74.667-34.133 74.667-74.667-32-74.666-74.667-74.666z m288 0c-40.533 0-74.667 34.133-74.667 74.666S471.467 448 512 448s74.667-34.133 74.667-74.667-32-74.666-74.667-74.666z m288 0c-40.533 0-74.667 34.133-74.667 74.666S759.467 448 800 448s74.667-34.133 74.667-74.667-32-74.666-74.667-74.666z"  horiz-adv-x="1024" />

    
    <glyph glyph-name="yiguoqi" unicode="&#59453;" d="M617.716132 641.18133c80.371115 0 151.640159-38.80214 196.111598-98.982146l31.147232-8.31271c-46.325489 76.942411-130.787179 128.539804-227.25883 128.539804-46.58454 0-90.399534-12.00996-128.539804-32.990432l31.014316-8.318135c30.087968 12.806103 63.083825 20.063619 97.525488 20.063619z m160.217346 13.7216l17.022813-13.7216 5.27733 20.720063 19.135915 11.21653-19.135915 11.21653-5.27733 20.720064-17.022813-13.727026-22.304212 1.715709 8.577187-19.6608-8.577187-19.666225 22.304212 1.186755z m-295.485711 46.326845l-17.551767 12.137451-3.963083-21.642341-17.812175-13.462549 19.263406-9.234988 6.46951-20.455586 15.834702 15.968974 21.908175 0.656445-9.499465 19.137272 7.125955 20.85298-21.775258-3.957658z m164.169579 29.689218l-12.932239 16.895322-10.294251-19.400392-21.113388-7.258871 15.571581-14.649304-0.132917-21.377865 19.799142 10.294252 21.112032-5.9392-3.301213 20.980472 13.07058 17.684683-21.779327 2.770903z m237.287247-133.027772l-18.341128 12.673187-2.637987-21.250374-17.159799-12.667761 19.930702-9.896858 7.65084-20.587147 15.046697 15.039915 22.039735-0.126135-10.823205 19.263406 5.9392 20.455587-21.645055-2.90382zM1122.775989 437.546384L200.683656 684.59893c-22.56462 6.07076-45.924026-7.390432-51.994787-29.955052L82.83414 408.779444c-6.07076-22.570045 7.390432-45.929452 29.960477-52.000212l922.086909-247.05119c22.570045-6.072117 45.928095 7.391788 51.994787 29.960477l65.854728 245.865791c6.072117 22.694824-7.257515 46.05423-29.955052 51.992074z m6.728562-56.745875l-60.440413-225.408848c-4.487968-16.889897-22.039735-27.056657-38.935057-22.437129L128.630675 374.595475c-16.895322 4.487968-27.056657 22.039735-22.437128 38.930989l60.444482 225.408847c4.487968 16.895322 22.039735 27.056657 38.929632 22.437129l901.632678-241.6423c16.762405-4.487968 26.79218-21.908175 22.304212-38.929631zM617.716132 779.089038c176.711205 0 325.447544-120.090109 368.996705-283.078357l23.490967-6.203677C968.364927 667.709033 808.5504 800.206495 617.849049 800.206495c-115.740482 0-219.867041-48.831915-293.50417-126.691178l23.490967-6.203677c69.023025 69.021669 164.434056 111.777399 269.880286 111.777398z m97.399354-605.748217c-29.82756-12.930882-62.691857-20.32267-97.399354-20.32267-80.369759 0-151.633377 38.796715-196.110241 98.978077l-31.141806 8.31271c46.320064-76.938342 130.780397-128.539804 227.252047-128.539804 46.585897 0 90.40089 12.00996 128.541161 32.995857l-31.141807 8.57583z m-227.523306-43.94791l-16.889897 13.722957-5.282755-20.715995-18.871438-11.220599 18.871438-11.21653 5.282755-20.720063 16.889897 13.727025 22.172652-1.584148-8.578543 19.6608 8.578543 19.666225-22.172652-1.319672z m130.123952-65.329843l12.933595-16.889897 10.161335 19.268832 20.985897 7.258871-15.438665 14.780864v21.377865l-19.666225-10.294252-20.85298 5.9392 3.299857-20.985897-13.065155-17.679258 21.642341-2.776328z m-268.163221 133.293605l17.28729-13.987433 4.089219 20.980471 18.082077 11.353515-19.135916 11.348091-6.072116 20.85298-15.967619-13.991502-21.906818 1.584148 9.233632-19.793717-7.390432-19.930701 21.780683 1.584148z m268.163221-182.120096c-176.709849 0-325.440763 120.095534-368.989923 283.078358l-23.492323 6.203677c41.966368-177.896604 201.786321-310.399491 392.482246-310.399491 115.740482 0 219.868397 48.831915 293.510951 126.696604l-23.490966 6.198251c-68.891465-69.016244-164.440837-111.777399-270.019985-111.777399z m153.483359 77.867402l17.420207-12.144233 3.830167 21.377865 17.684683 13.329631-19.268831 9.240414-6.46951 20.455586-15.570226-15.836058-21.775258-0.66187 9.499465-19.004355L749.55715 89.006623l21.642341 4.097356z m0 0M449.045023 423.496562c11.879756-9.545579 22.377452-17.226257 31.495798-23.039322-8.700609-17.475815-15.587857-30.707793-20.665812-39.697293s-12.387009-14.702199-21.92445-17.143523c-9.538797-2.438612-21.319544-1.723846-35.343597 2.145653l-99.77422 27.534071c-32.799195 9.051889-44.460588 30.743057-34.986893 65.073505l27.15431 98.394872 34.023926-9.389606-6.154851-22.298787 111.26879-30.706437 13.386596 48.509118L296.024159 564.685139l8.691115 31.495799 185.754956-51.259677-30.770182-111.499359-145.524641 40.157075-11.418618-41.38045c-4.270962-15.48071 0.872095-25.228376 15.43324-29.245711l85.750167-23.663216c7.127311-1.966623 13.198072-2.448106 18.220419-1.441738 5.018278 1.006368 8.852514 4.215354 11.501351 9.629669 2.647481 5.411603 7.775619 17.41885 15.383057 36.019031zM703.732132 292.105833c-7.956005-11.493213-14.238347-20.810935-18.847025-27.950453l-130.501001 38.115857c-10.591279 3.169653-19.366485 7.592519-26.337823 13.267242-6.968625 5.677436-11.98826 12.522638-15.050765 20.54239-16.496572-8.970511-28.369547-15.838771-35.620281-20.599354l-2.913314 39.645754 28.088795 13.029891 17.509722 63.450024-20.922151 5.773733 8.375099 30.347019 52.645807-14.528593-25.821076-93.56783c7.431121-16.398919 20.688869-27.231619 39.769176-32.498098l35.392424-10.260345c23.682204-6.535968 55.0912-14.790358 94.232413-24.767237zM560.770882 537.890246c6.899454-19.221362 12.505007-36.274013 16.811232-51.149817-3.223905-0.926347-14.578776-3.813891-34.057833-8.662633-4.158389 17.804037-8.582612 34.943491-13.272668 51.411581l30.519269 8.400869z m44.727778-88.047724c7.054072-14.483836 15.827921-34.387412 26.324259-59.712085-10.124715-3.805754-21.06863-8.206919-32.838527-13.204853-7.250734 19.152191-15.317955 39.523687-24.207089 61.109065l30.721357 11.807873z m80.872943 51.902559l33.334929-9.199725-10.467857-37.932757 33.33493-9.198369-7.675253-27.817536-33.334929 9.198368-21.125595-76.554511c-3.617229-13.104487-9.358411-22.179433-17.223545-27.223481-7.867846-5.045404-17.294072-6.256572-28.281388-3.63893-10.988673 2.618999-26.021807 6.563094-45.100757 11.828218 0.668652 10.206093 0.859889 21.946151 0.564217 35.222887 17.897621-6.259285 30.220885-10.317309 36.965722-12.179497 11.339952-3.128964 18.745303 1.588217 22.214697 14.15697l18.651719 67.589425-91.49813 25.250077 7.675253 27.817536 91.49813-25.250077 10.467857 37.931402zM872.827762 398.337356l-13.103132 3.615873-27.026818-97.935089 13.103131-3.615872-7.486728-27.128541-34.714279 9.579486a553.752074 553.752074 0 0 0 18.012906-33.793356c15.122649 12.070993 28.459062 39.028641 40.005171 80.87023l29.120933 105.520827 86.669732-23.916842-52.085658-188.742867c-2.156503-7.817664-5.629966-13.309287-10.424456-16.483009-4.793134-3.171009-10.631968-4.157033-17.516503-2.959428-6.884535 1.200318-17.300853 3.72302-31.246241 7.570819 0.774442 8.197425 1.289833 19.023343 1.539391 32.47911 8.259815-2.939083 14.841897-5.084736 19.748959-6.438316 6.896742-1.904233 11.318252 0.667295 13.263173 7.718655l8.120117 29.427454-31.036016 8.563624c-9.359767-27.931465-23.438072-50.268228-42.245765-67.015714-5.006072 6.659391-10.984604 13.835528-17.934241 21.524344l-20.155846-8.04552a665.271777 665.271777 0 0 1-20.218236 44.17441l25.232445 9.860239-50.576106 13.957595 16.375863-21.342602c-15.231152-10.969685-30.260217-20.596641-45.077701-28.8768-5.634034 9.472339-11.041568 17.97493-16.217176 25.506416a235.693605 235.693605 0 0 1 40.321187 25.982474l-31.725012 8.754861 7.486728 27.127184 17.700959-4.885361 27.026819 97.935088-14.713049 4.060737 7.486728 27.127184 14.713049-4.060736 5.265123 19.081663 28.049462-7.740355-5.265123-19.081663 35.174061-9.705622 5.265123 19.081664 28.737102-7.930236-5.265123-19.080307 13.103131-3.615873-7.488084-27.125828z m-104.039757-76.683359l35.174061-9.705621 4.695481 17.011963-35.174061 9.705621-4.695481-17.011963z m11.547465 41.84159l35.174061-9.706978 4.314363 15.633971-35.174061 9.705621-4.314363-15.632614z m11.164991 40.460885l35.174061-9.705622 4.314363 15.632615-35.174061 9.705621-4.314363-15.632614z m95.086877-94.274459l29.771952-8.216413 8.183862 29.656668-29.656667 8.182506-8.299147-29.622761z m54.196047 80.292451l-29.655311 8.183862-8.691115-31.494443 29.656667-8.185218 8.689759 31.495799z"  horiz-adv-x="1230" />

    
    <glyph glyph-name="xinfeng" unicode="&#58884;" d="M1004.904 608.7c-17.2 27.3-46.2 43.3-46.2 43.3l-67 39.7v92.5c-2.4 33.8-32.6 57.5-57.5 57.5h-644.6c-36.8 0-54.5-24.3-57.5-57.5v-92.5l-80-45.7s-27.3-16-39.1-37.4c-13.6-24.3-13-63.4-13-63.4v-472c0-69.4 69.4-142.9 130.4-142.9h760.7c52.2 0 132.8 42.7 132.8 135.8V538.7c-0.1 0-1.8 42.1-19 70z m-872.2-69.4l-70 46.8 70 46.2v-93z m707.3-25.5l-290.5-172.6s-16.6-13-37.9-12.5c-20.2 0.6-34.4 10.1-34.4 10.1l-294.1 175V763.4c0 19.6 8.3 27.9 27.9 27.9h601.2c19.6 0 27.9-8.3 27.9-27.9v-249.6z m52.2 23.7v96.1l71.7-49.8-71.7-46.3zM605.204 581.4h-291.7c-11.3 0-21.9-13.6-21.9-24.9 0-11.3 10.7-24.9 21.9-24.9h291.7c11.9 0 20.8 13.6 20.8 24.9 0 11.2-9.5 24.9-20.8 24.9z m111.5 120.3h-409.1c-11.3 0-21.9-13.6-21.9-24.9 0-11.3 10.7-24.9 21.9-24.9h409.1c11.3 0 20.8 13.6 20.8 24.9-0.1 11.3-9.5 24.9-20.8 24.9z"  horiz-adv-x="1024" />

    
    <glyph glyph-name="wuyefei" unicode="&#58911;" d="M1000.8576 450.3552C983.04 467.7632 650.0352 790.9376 591.872 848.0768c-23.3472 22.9376-49.5616 34.6112-77.824 34.6112-46.6944 0-79.872-32.1536-83.1488-35.4304l-359.0144-350.208c-18.8416-18.2272-49.7664-47.9232-52.4288-50.3808-12.9024-11.264-27.2384-38.912-13.9264-68.8128 12.288-28.2624 40.1408-36.0448 55.0912-36.2496h33.792c0.6144 0 1.2288 0 1.4336-0.2048 0.2048-0.6144 0.4096-1.4336 0.6144-2.2528v-235.9296c0-101.376 63.2832-156.2624 72.0896-163.4304 40.5504-35.6352 89.2928-54.272 140.9024-54.272l406.3232 0.4096c51.2 0 101.5808 18.6368 141.7216 52.4288 71.0656 59.5968 72.9088 146.0224 73.1136 150.1184V340.992c0.4096 0.2048 0.8192 0.4096 1.2288 0.4096h31.3344c25.1904 0 46.2848 14.7456 56.5248 39.5264 12.4928 31.1296-5.3248 57.7536-18.8416 69.4272zM648.192 213.4016c16.9984 0 30.3104-14.5408 30.3104-29.4912 0-13.9264-13.9264-28.2624-30.3104-28.2624h-107.1104v-55.296c0-14.5408-11.6736-25.6-29.2864-25.6-16.5888 0-28.4672 11.4688-28.4672 25.6v55.296h-107.9296c-16.1792 0-29.4912 14.7456-29.4912 29.4912 0 14.336 12.9024 28.2624 29.4912 28.2624H483.328v28.8768h-107.9296c-17.2032 0-29.4912 14.336-29.4912 29.696 0 13.7216 13.312 28.0576 29.4912 28.0576h82.5344L366.592 443.5968c-3.8912 5.12-5.12 14.5408-3.4816 20.8896 2.048 7.5776 8.3968 13.9264 17.6128 17.6128 14.1312 5.12 31.1296 0.4096 38.7072-9.8304l93.3888-143.1552 92.3648 143.5648c7.7824 11.6736 26.8288 16.384 39.936 9.4208 4.7104-1.4336 8.192-4.5056 11.264-8.3968l0.4096 3.072v-6.144c0-1.024 2.6624-2.8672 3.072-4.096 2.2528-6.5536 2.8672-14.5408-1.2288-20.48l-9.6256-16.1792-81.92-129.8432h81.1008c16.7936 0 30.3104-14.7456 30.3104-29.2864 0-14.336-13.312-28.672-30.3104-28.672h-107.1104v-28.8768h107.1104z m0 0"  horiz-adv-x="1024" />

    
    <glyph glyph-name="Group-" unicode="&#59028;" d="M608 448a96 96 0 1 1-96-96 96 96 0 0 1 96 96z m64 0a160 160 0 1 0-160 160 160 160 0 0 0 160-160zM128 445.12a384 384 0 1 0 576-334.4l-160-160a47.68 47.68 0 0 0-67.84 0l-167.68 167.04A386.24 386.24 0 0 0 128 445.12z m370.56-449.92z m166.72 167.04l3.84 1.92A321.92 321.92 0 1 1 192 445.12a322.24 322.24 0 0 1 153.28-274.88l3.2-2.24 2.56-2.56 160-160z"  horiz-adv-x="1024" />

    
    <glyph glyph-name="sousuo-" unicode="&#58896;" d="M420.6 155.4c-84.7 0-164.3 33-224.2 92.8-59.9 59.9-92.8 139.5-92.8 224.2s33 164.3 92.8 224.2 139.5 92.8 224.2 92.8 164.3-33 224.2-92.8c59.9-59.9 92.8-139.5 92.8-224.2s-33-164.3-92.8-224.2c-59.9-59.9-139.5-92.8-224.2-92.8z m0 570c-67.6 0-131.1-26.3-178.9-74.1-47.8-47.8-74.1-111.3-74.1-178.9s26.3-131.1 74.1-178.9c47.8-47.8 111.3-74.1 178.9-74.1s131.1 26.3 178.9 74.1c47.8 47.8 74.1 111.3 74.1 178.9s-26.3 131.1-74.1 178.9c-47.8 47.7-111.3 74.1-178.9 74.1zM825.4 34.8c-8.2 0-16.4 3.1-22.6 9.4L599.4 247.5c-12.5 12.5-12.5 32.8 0 45.3s32.8 12.5 45.3 0L848 89.4c12.5-12.5 12.5-32.8 0-45.3-6.2-6.2-14.4-9.3-22.6-9.3z"  horiz-adv-x="1024" />

    
    <glyph glyph-name="zhuyi" unicode="&#58973;" d="M877.357778 750.207142A512.945683 512.945683 0 0 1 587.365714 896h-151.817212A516.623341 516.623341 0 0 1 0.551649 465.346285v-162.079627a516.500752 516.500752 0 0 1 439.445067-431.266658h142.920783a516.48324 516.48324 0 0 1 440.530852 438.621973v147.351484a512.945683 512.945683 0 0 1-146.090573 292.233685zM511.448351-120.627172c-278.451225 0-504.924887 226.508688-504.924887 504.924887S233.032152 889.222602 511.448351 889.222602s504.924887-226.508688 504.924887-504.924887-226.508688-504.924887-504.924887-504.924887zM511.448351 889.222602c-278.451225 0-504.924887-226.508688-504.924887-504.924887s226.508688-504.924887 504.924887-504.924887 504.924887 226.508688 504.924887 504.924887S789.864551 889.222602 511.448351 889.222602z m317.784649-822.709536c-84.638665-84.638665-197.50773-131.344917-317.784649-131.344917s-233.128472 46.618689-317.784649 131.344917-131.344917 197.50773-131.344917 317.784649 46.618689 233.128472 131.344917 317.784649 197.50773 131.344917 317.784649 131.344917 233.128472-46.618689 317.784649-131.344917 131.344917-197.50773 131.344918-317.784649-46.706253-233.128472-131.344918-317.784649zM470.573813 162.850185H555.702832v-85.181557h-85.129019z m-3.414968 384.998221l20.437269-320.253933h47.704474L559.205363 547.830893v132.886031h-92.046518z m0 0"  horiz-adv-x="1024" />

    
    <glyph glyph-name="boluo" unicode="&#58892;" d="M532.8-74.5H427.5c-104.2 0-189 84.8-189 189V317.8c0 64.5 25.1 125.2 70.8 170.9 45.6 45.6 106.3 70.7 170.8 70.7 64.5 0 125.2-25.1 170.9-70.8 45.6-45.6 70.7-106.3 70.7-170.8v-203.3c0.1-50.4-19.6-97.9-55.2-133.6-35.7-35.7-83.2-55.4-133.7-55.4z m-52.7 607.9c-118.9 0-215.6-96.7-215.6-215.6v-203.3c0-89.9 73.1-163 163-163h105.3c43.6 0 84.5 17 115.3 47.8 30.8 30.8 47.7 71.7 47.6 115.2V317.8c0 118.9-96.7 215.6-215.6 215.6zM353.5 501.7c-34.6 16.8-47.3 76.3-53.4 104.8-0.5 2.5-1 4.7-1.4 6.6-1.3 5.6 0 11.5 3.5 16 3.5 4.6 8.9 7.3 14.8 7.5 10 0.2 23.3-2 39.7-6.6-11.8 28.7-17.4 62.8-19.4 77.7v0.1c-0.7 5.9 1.2 11.7 5.3 15.9 4.1 4.2 9.8 6.3 15.7 5.7h0.1c25-2.7 52-16.4 70.1-27.4 3.8 33.3 20.8 69.3 31.4 89 3.6 6.8 10.7 11.1 18.4 11.3 7.7 0.2 15-3.7 19-10.3 19.9-32.7 31.9-66.6 37.6-85.3 30.7 16 57 18.7 70.4 18.8h0.1c5.5 0 10.8-2.3 14.4-6.4 3.6-4 5.4-9.5 4.8-14.9-2.7-24.8-12.1-52.4-21.2-74.7 18.9 6.9 33 9.2 42.8 7.1 5.1-1.1 9.4-4 12.2-8.4 2.8-4.4 3.7-9.7 2.5-14.8-18.6-81-41.2-105.5-47.7-111.1l-17 19.7c7 6 23.4 32.2 37.3 88.9-6.3-0.9-17.2-3.7-35.2-11.4-7.4-3.2-15.8-1.6-21.4 4.2-5.6 5.7-7.1 14.1-3.7 21.4 7.5 16.6 20 46.9 24.5 73.9-13.3-1.2-33.8-5.4-57.2-19-5.1-3-11.3-3.5-16.8-1.3-5.6 2.2-9.7 6.7-11.5 12.5l-0.1 0.3c-3.7 13.4-14.1 46.8-33.1 80-21.5-42.3-25.2-69.1-25.4-81.7-0.1-7.1-4.1-13.5-10.3-16.7-6.2-3.3-13.7-2.9-19.5 1-10.7 7-36.1 22.6-59.5 27.9 2.9-17.9 9.6-51.1 21.8-74 3.8-7 2.9-15.4-2.2-21.5s-13.3-8.4-20.9-5.9c-14.8 4.9-27.6 8.1-37.1 9.3 4.7-21.9 16.4-74 38.9-85l-11.3-23.2z m9.7 114.2s0.1-0.1 0 0c0.1-0.1 0 0 0 0z m272.3 3.4z m-47.4 4.1s-0.1 0 0 0c-0.1 0 0 0 0 0z m-216.8 2z m156.2 77.2zM475 778.5zM698.8 123.3l-88.6-65.8c-1.4-1-3.3-1-4.7 0l-94 69.9c-2.1 1.6-2.1 4.7 0 6.3l106.1 78.9c1.4 1 3.3 1 4.7 0l74.5-55.3c1.7-1.3 4.2-0.9 5.5 0.8l11.6 15.4c1.3 1.7 0.9 4.2-0.8 5.5L647 228.1c-2.1 1.6-2.1 4.7 0 6.3l69.2 51.5c1.7 1.3 2.1 3.8 0.8 5.5l-11.6 15.4c-1.3 1.7-3.7 2.1-5.5 0.8l-77.6-57.7c-1.4-1-3.3-1-4.7 0l-108.1 80.4c-2.1 1.6-2.1 4.7 0 6.3l116.7 86.8c1.4 1 3.3 1 4.7 0l57.9-43.1c1.7-1.3 4.2-0.9 5.5 0.8l8.4 11.2c-4.1 3.1-5 8.9-1.9 13l-45.3 33.6c-2.1 1.6-2.1 4.7 0 6.3l6.5 4.8c1.7 1.3 2.1 3.8 0.8 5.5l-11.6 15.4c-1.3 1.7-3.7 2.1-5.5 0.8l-14.9-11c-1.4-1-3.3-1-4.7 0L500.6 554c-1.7 1.3-4.2 0.9-5.5-0.8l-8.4-11.2c-1.6-2.1-4.7-2.1-6.3 0l-10.8 14.4c-1.3 1.7-3.7 2.1-5.5 0.8l-127.7-94.9c-1.4-1-3.3-1-4.7 0l-17 12.7c-1.7 1.3-4.2 0.9-5.5-0.8l-11.6-15.4c-1.3-1.7-0.9-4.2 0.8-5.5l8.7-6.5c2.1-1.6 2.1-4.7 0-6.3l-50.4-37.4c-1.7-1.3-2.1-3.8-0.8-5.5l11.6-15.4c1.3-1.7 3.7-2.1 5.5-0.8l58.8 43.7c1.4 1 3.3 1 4.7 0l119.1-88.5c2.1-1.6 2.1-4.7 0-6.3l-106.1-78.9c-1.4-1-3.3-1-4.7 0L257.9 316c-1.7 1.3-4.2 0.9-5.5-0.8l-11.6-15.4c-1.3-1.7-0.9-4.2 0.8-5.5l78.5-58.3c2.1-1.6 2.1-4.7 0-6.3L246.8 175c-1.7-1.3-2.1-3.8-0.8-5.5l11.6-15.4c1.3-1.7 3.7-2.1 5.5-0.8l81.7 60.8c1.4 1 3.3 1 4.7 0l108.1-80.4c2.1-1.6 2.1-4.7 0-6.3l-106.2-78.9c-1.4-1-3.3-1-4.7 0l-82.1 61c-1.7 1.3-4.2 0.9-5.5-0.8l-11.6-15.4c-1.3-1.7-0.9-4.2 0.8-5.5L322 33c2.1-1.6 2.1-4.7 0-6.3l-25.4-18.9c-1.7-1.3-2.1-3.8-0.8-5.5l11.6-15.4c1.3-1.7 3.7-2.1 5.5-0.8l33.7 25.1c1.4 1 3.3 1 4.7 0l112.4-83.6c1.7-1.3 4.2-0.9 5.5 0.8l3 4c1.6 2.1 4.7 2.1 6.3 0l0.9-1.1c1.3-1.7 3.7-2.1 5.5-0.8l120.7 89.7c1.4 1 3.3 1 4.7 0l37.7-28c1.7-1.3 4.2-0.9 5.5 0.8l11.6 15.4c1.3 1.7 0.9 4.2-0.8 5.5L635 35.7c-2.1 1.6-2.1 4.7 0 6.3l80.2 59.6c1.7 1.3 2.1 3.8 0.8 5.5l-11.6 15.4c-1.4 1.8-3.9 2.1-5.6 0.8zM361.1 440.5c-2.1 1.6-2.1 4.7 0 6.3l122.4 91c-1.3-1.7-0.9-4.2 0.8-5.5l117.3-87.2c2.1-1.6 2.1-4.7 0-6.3L484.9 352c-1.4-1-3.3-1-4.7 0l-119.1 88.5z m13-204.7l106.1 78.9c1.4 1 3.3 1 4.7 0L593 234.4c2.1-1.6 2.1-4.7 0-6.3l-106.1-78.9c-1.4-1-3.3-1-4.7 0l-108.1 80.4c-2.1 1.5-2.1 4.7 0 6.2z m95.9-279l-94 69.9c-2.1 1.6-2.1 4.7 0 6.3l106.2 78.9c1.4 1 3.3 1 4.7 0l94-69.9c2.1-1.6 2.1-4.7 0-6.3l-106.2-78.9a3.76 3.76 0 0 0-4.7 0z"  horiz-adv-x="1024" />

    
    <glyph glyph-name="kefu" unicode="&#58941;" d="M522.24 860.16C259.072 860.16 46.08 646.656 46.08 384c0-263.168 213.504-476.16 476.16-476.16 263.168 0 476.16 213.504 476.16 476.16 0.512 262.656-212.992 476.16-476.16 476.16zM313.5744 500.57216c28.43136 80.07168 106.0352 137.58464 197.57568 137.58464s169.14944-57.51808 197.57568-137.58976c20.1984-11.07456 33.8688-32.21504 33.8688-56.4736 0-35.72224-29.62432-64.6912-66.13504-64.6912v129.3824c1.81248 0 3.6096-0.0768 5.38624-0.21504-29.33248 63.68256-94.6688 108.032-170.69568 108.032-76.032 0-141.3632-44.34944-170.69568-108.032 1.77664 0.13824 3.56864 0.21504 5.38112 0.21504v-129.3824c-36.5312 0-66.12992 28.96896-66.12992 64.6912 0 24.26368 13.66016 45.40416 33.8688 56.47872z m340.70016-67.3792c0-77.39904-64.08192-140.14464-143.14496-140.14464s-143.14496 62.7456-143.14496 140.14464c0 77.40928 64.08192 140.14464 143.14496 140.14464s143.14496-62.73536 143.14496-140.14464zM257.664 129.8432c0 81.50016 43.91936 141.48608 110.82752 175.19616 37.38624-34.06336 87.52128-54.91712 142.63808-54.91712 55.2192 0 105.44128 20.92032 142.84288 55.10144 67.6096-33.664 112.3584-93.73184 112.3584-175.38048H257.664z"  horiz-adv-x="1024" />

    
    </font>
</defs>
</svg>
